<svg width="19" height="15" viewBox="0 0 19 15" fill="none" xmlns="http://www.w3.org/2000/svg">
<path d="M10.25 10.3187C11.2297 9.70847 11.9841 8.79574 12.3989 7.7186C12.8137 6.64146 12.8665 5.45852 12.5491 4.34874C12.2318 3.23897 11.5616 2.26273 10.6401 1.56775C9.71848 0.872758 8.59562 0.496826 7.44136 0.496826C6.2871 0.496826 5.16424 0.872758 4.24267 1.56775C3.32109 2.26273 2.65093 3.23897 2.33359 4.34874C2.01624 5.45852 2.06898 6.64146 2.48381 7.7186C2.89864 8.79574 3.653 9.70847 4.63277 10.3187C3.01949 10.8468 1.56792 11.8335 0.400736 13.2226C0.346049 13.2851 0.304377 13.358 0.278159 13.4368C0.25194 13.5156 0.2417 13.5989 0.248037 13.6817C0.254374 13.7645 0.277162 13.8453 0.315067 13.9192C0.352973 13.9931 0.405235 14.0588 0.468799 14.1122C0.532364 14.1657 0.605954 14.206 0.685267 14.2307C0.764581 14.2555 0.848026 14.2641 0.930724 14.2562C1.01342 14.2483 1.09371 14.224 1.1669 14.1847C1.24009 14.1454 1.30471 14.0919 1.35699 14.0273C2.92574 12.1554 5.08667 11.125 7.43745 11.125C9.78824 11.125 11.9492 12.1554 13.521 14.0273C13.6278 14.1543 13.7806 14.2337 13.9458 14.2481C14.1111 14.2624 14.2753 14.2106 14.4023 14.1039C14.5293 13.9971 14.6087 13.8444 14.6231 13.6791C14.6375 13.5138 14.5856 13.3496 14.4789 13.2226C13.3109 11.8335 11.8593 10.8468 10.25 10.3187ZM3.37495 5.81245C3.37495 5.00896 3.61322 4.22352 4.05961 3.55545C4.506 2.88737 5.14048 2.36667 5.8828 2.05919C6.62513 1.75171 7.44196 1.67126 8.23001 1.82801C9.01806 1.98476 9.74193 2.37168 10.3101 2.93983C10.8782 3.50798 11.2651 4.23185 11.4219 5.0199C11.5786 5.80794 11.4982 6.62478 11.1907 7.3671C10.8832 8.10943 10.3625 8.7439 9.69446 9.1903C9.02638 9.63669 8.24094 9.87495 7.43745 9.87495C6.36039 9.87371 5.3278 9.4453 4.5662 8.6837C3.80461 7.9221 3.3762 6.88951 3.37495 5.81245ZM18.707 9.17729L18.3429 8.96714C18.3856 8.74101 18.3856 8.50889 18.3429 8.28276L18.707 8.07261C18.7781 8.03157 18.8404 7.97693 18.8904 7.91181C18.9404 7.84668 18.977 7.77235 18.9983 7.69306C19.0195 7.61377 19.025 7.53107 19.0143 7.44968C19.0036 7.36828 18.9769 7.2898 18.9359 7.2187C18.8949 7.1476 18.8402 7.08528 18.7751 7.0353C18.71 6.98532 18.6356 6.94865 18.5563 6.9274C18.4771 6.90614 18.3944 6.90071 18.313 6.91142C18.2316 6.92212 18.1531 6.94876 18.082 6.98979L17.7171 7.20073C17.5425 7.05093 17.3418 6.93466 17.125 6.85776V6.43745C17.125 6.27169 17.0591 6.11272 16.9419 5.99551C16.8247 5.8783 16.6657 5.81245 16.5 5.81245C16.3342 5.81245 16.1752 5.8783 16.058 5.99551C15.9408 6.11272 15.875 6.27169 15.875 6.43745V6.85776C15.6581 6.93466 15.4574 7.05093 15.2828 7.20073L14.9179 6.98979C14.8468 6.94876 14.7683 6.92212 14.6869 6.91142C14.6056 6.90071 14.5229 6.90614 14.4436 6.9274C14.3643 6.94865 14.2899 6.98532 14.2248 7.0353C14.1597 7.08528 14.1051 7.1476 14.064 7.2187C14.023 7.2898 13.9963 7.36828 13.9856 7.44968C13.9749 7.53107 13.9804 7.61377 14.0016 7.69306C14.0229 7.77235 14.0595 7.84668 14.1095 7.91181C14.1595 7.97693 14.2218 8.03157 14.2929 8.07261L14.657 8.28276C14.6143 8.50889 14.6143 8.74101 14.657 8.96714L14.2929 9.17729C14.2218 9.21833 14.1595 9.27297 14.1095 9.33809C14.0595 9.40322 14.0229 9.47755 14.0016 9.55684C13.9804 9.63613 13.9749 9.71883 13.9856 9.80023C13.9963 9.88162 14.023 9.9601 14.064 10.0312C14.1051 10.1023 14.1597 10.1646 14.2248 10.2146C14.2899 10.2646 14.3643 10.3012 14.4436 10.3225C14.5229 10.3438 14.6056 10.3492 14.6869 10.3385C14.7683 10.3278 14.8468 10.3011 14.9179 10.2601L15.2828 10.0492C15.4574 10.199 15.6581 10.3152 15.875 10.3921V10.8125C15.875 10.9782 15.9408 11.1372 16.058 11.2544C16.1752 11.3716 16.3342 11.4375 16.5 11.4375C16.6657 11.4375 16.8247 11.3716 16.9419 11.2544C17.0591 11.1372 17.125 10.9782 17.125 10.8125V10.3921C17.3418 10.3152 17.5425 10.199 17.7171 10.0492L18.082 10.2601C18.1769 10.3152 18.2847 10.344 18.3945 10.3437C18.5321 10.3438 18.6659 10.2984 18.7751 10.2146C18.8843 10.1309 18.9628 10.0134 18.9984 9.88045C19.0341 9.74751 19.0248 9.60653 18.9721 9.47939C18.9194 9.35225 18.8262 9.24606 18.707 9.17729ZM15.875 8.62495C15.875 8.50134 15.9116 8.3805 15.9803 8.27772C16.049 8.17494 16.1466 8.09483 16.2608 8.04753C16.375 8.00022 16.5006 7.98784 16.6219 8.01196C16.7431 8.03608 16.8545 8.0956 16.9419 8.18301C17.0293 8.27042 17.0888 8.38178 17.1129 8.50302C17.1371 8.62426 17.1247 8.74992 17.0774 8.86413C17.0301 8.97833 16.95 9.07594 16.8472 9.14462C16.7444 9.2133 16.6236 9.24995 16.5 9.24995C16.3342 9.24995 16.1752 9.1841 16.058 9.06689C15.9408 8.94968 15.875 8.79071 15.875 8.62495Z" fill="#808080"/>
</svg>
