<svg width="11" height="10" viewBox="0 0 11 10" fill="none" xmlns="http://www.w3.org/2000/svg">
<path d="M5.39996 0.125C4.43578 0.125 3.49325 0.410914 2.69156 0.946586C1.88987 1.48226 1.26503 2.24363 0.896051 3.13442C0.527074 4.02521 0.430532 5.00541 0.618635 5.95107C0.806738 6.89672 1.27104 7.76536 1.95282 8.44715C2.6346 9.12893 3.50324 9.59323 4.4489 9.78133C5.39456 9.96943 6.37476 9.87289 7.26554 9.50391C8.15633 9.13494 8.91771 8.51009 9.45338 7.7084C9.98905 6.90671 10.275 5.96418 10.275 5C10.2736 3.70749 9.75955 2.46831 8.8456 1.55436C7.93166 0.640418 6.69248 0.126365 5.39996 0.125ZM7.54028 4.14031L4.91528 6.76531C4.88045 6.80018 4.83909 6.82784 4.79357 6.84671C4.74804 6.86558 4.69924 6.87529 4.64996 6.87529C4.60068 6.87529 4.55189 6.86558 4.50636 6.84671C4.46084 6.82784 4.41948 6.80018 4.38465 6.76531L3.25965 5.64031C3.18929 5.56995 3.14976 5.47451 3.14976 5.375C3.14976 5.27549 3.18929 5.18005 3.25965 5.10969C3.33002 5.03932 3.42545 4.99979 3.52496 4.99979C3.62448 4.99979 3.71991 5.03932 3.79028 5.10969L4.64996 5.96984L7.00965 3.60969C7.04449 3.57485 7.08586 3.54721 7.13138 3.52835C7.1769 3.5095 7.22569 3.49979 7.27496 3.49979C7.32424 3.49979 7.37303 3.5095 7.41855 3.52835C7.46407 3.54721 7.50543 3.57485 7.54028 3.60969C7.57512 3.64453 7.60276 3.68589 7.62161 3.73141C7.64047 3.77694 7.65017 3.82573 7.65017 3.875C7.65017 3.92427 7.64047 3.97306 7.62161 4.01859C7.60276 4.06411 7.57512 4.10547 7.54028 4.14031Z" fill="#2BAC47"/>
</svg>
