<svg width="16" height="14" viewBox="0 0 16 14" fill="none" xmlns="http://www.w3.org/2000/svg">
<path d="M15.5 6.99986C15.5 7.16562 15.4342 7.32459 15.3169 7.4418C15.1997 7.55901 15.0408 7.62486 14.875 7.62486H2.6336L7.19219 12.1827C7.25026 12.2407 7.29632 12.3097 7.32775 12.3855C7.35918 12.4614 7.37535 12.5427 7.37535 12.6249C7.37535 12.707 7.35918 12.7883 7.32775 12.8642C7.29632 12.94 7.25026 13.009 7.19219 13.067C7.13412 13.1251 7.06518 13.1712 6.98931 13.2026C6.91344 13.234 6.83213 13.2502 6.75 13.2502C6.66788 13.2502 6.58656 13.234 6.51069 13.2026C6.43482 13.1712 6.36588 13.1251 6.30782 13.067L0.682816 7.44205C0.624706 7.384 0.578606 7.31507 0.547154 7.2392C0.515701 7.16332 0.499512 7.08199 0.499512 6.99986C0.499512 6.91772 0.515701 6.8364 0.547154 6.76052C0.578606 6.68465 0.624706 6.61572 0.682816 6.55767L6.30782 0.932672C6.42509 0.815396 6.58415 0.749512 6.75 0.749512C6.91586 0.749512 7.07492 0.815396 7.19219 0.932672C7.30947 1.04995 7.37535 1.20901 7.37535 1.37486C7.37535 1.54071 7.30947 1.69977 7.19219 1.81705L2.6336 6.37486H14.875C15.0408 6.37486 15.1997 6.44071 15.3169 6.55792C15.4342 6.67513 15.5 6.8341 15.5 6.99986Z" fill="#F75803"/>
</svg>
