<svg width="18" height="17" viewBox="0 0 18 17" fill="none" xmlns="http://www.w3.org/2000/svg">
<path d="M17.375 8.37503C17.374 7.38078 16.9785 6.42756 16.2755 5.72452C15.5725 5.02148 14.6192 4.62606 13.625 4.62503H10.5156C10.2883 4.61174 6.32656 4.33284 2.55391 1.16878C2.37172 1.01577 2.14966 0.917933 1.9138 0.886756C1.67794 0.85558 1.43809 0.89236 1.22241 0.992775C1.00673 1.09319 0.824183 1.25307 0.696218 1.45364C0.568252 1.6542 0.500181 1.88712 0.5 2.12503V14.625C0.500032 14.863 0.567996 15.096 0.695903 15.2967C0.82381 15.4974 1.00635 15.6574 1.22205 15.7579C1.43776 15.8584 1.67768 15.8953 1.91361 15.8641C2.14954 15.833 2.37167 15.7351 2.55391 15.5821C5.50469 13.1071 8.56953 12.3977 9.875 12.1992V14.6774C9.87474 14.8833 9.92538 15.0862 10.0224 15.2679C10.1195 15.4496 10.2599 15.6045 10.4312 15.7188L11.2906 16.2914C11.4567 16.4023 11.647 16.4718 11.8454 16.494C12.0439 16.5162 12.2448 16.4906 12.4313 16.4192C12.6178 16.3478 12.7845 16.2328 12.9175 16.0837C13.0504 15.9347 13.1457 15.756 13.1953 15.5625L14.1148 12.0969C15.017 11.9769 15.8448 11.5333 16.4445 10.8487C17.0441 10.1642 17.3748 9.28511 17.375 8.37503ZM1.75 14.6196V2.12503C5.09453 4.93049 8.51797 5.64065 9.875 5.81565V10.9313C8.51953 11.1094 5.09688 11.818 1.75 14.6196ZM11.9844 15.2446V15.2532L11.125 14.6805V12.125H12.8125L11.9844 15.2446ZM13.625 10.875H11.125V5.87503H13.625C14.288 5.87503 14.9239 6.13842 15.3928 6.60726C15.8616 7.0761 16.125 7.71198 16.125 8.37503C16.125 9.03807 15.8616 9.67395 15.3928 10.1428C14.9239 10.6116 14.288 10.875 13.625 10.875Z" fill="#808080"/>
</svg>
