<svg width="19" height="16" viewBox="0 0 19 16" fill="none" xmlns="http://www.w3.org/2000/svg">
<path d="M17.9945 10.0203C17.762 9.84137 17.4913 9.71847 17.2035 9.66115C16.9157 9.60384 16.6185 9.61366 16.3352 9.68985L13.0664 10.4414C13.1425 10.1202 13.1448 9.78585 13.0733 9.46356C13.0017 9.14126 12.8582 8.83934 12.6534 8.58041C12.4486 8.32149 12.1878 8.11228 11.8907 7.96847C11.5935 7.82465 11.2676 7.74997 10.9375 7.75H7.02656C6.69812 7.74918 6.37278 7.81345 6.06932 7.93909C5.76587 8.06474 5.49032 8.24927 5.25859 8.48203L3.49141 10.25H1.25C0.918479 10.25 0.600537 10.3817 0.366117 10.6161C0.131696 10.8505 0 11.1685 0 11.5L0 14.625C0 14.9565 0.131696 15.2745 0.366117 15.5089C0.600537 15.7433 0.918479 15.875 1.25 15.875H9.375C9.4261 15.875 9.47701 15.8687 9.52656 15.8563L14.5266 14.6063C14.5584 14.5987 14.5896 14.5882 14.6195 14.575L17.6562 13.2828L17.6906 13.2672C17.9825 13.1214 18.2324 12.9036 18.4168 12.6345C18.6013 12.3654 18.7142 12.0537 18.7449 11.7289C18.7756 11.4041 18.7231 11.0768 18.5924 10.7779C18.4617 10.479 18.257 10.2183 17.9977 10.0203H17.9945ZM1.25 11.5H3.125V14.625H1.25V11.5ZM17.143 12.1414L14.1742 13.4055L9.29688 14.625H4.375V11.1336L6.14297 9.36641C6.25862 9.24983 6.39629 9.1574 6.54798 9.0945C6.69967 9.0316 6.86235 8.99948 7.02656 9H10.9375C11.1861 9 11.4246 9.09877 11.6004 9.27459C11.7762 9.4504 11.875 9.68886 11.875 9.9375C11.875 10.1861 11.7762 10.4246 11.6004 10.6004C11.4246 10.7762 11.1861 10.875 10.9375 10.875H8.75C8.58424 10.875 8.42527 10.9408 8.30806 11.0581C8.19085 11.1753 8.125 11.3342 8.125 11.5C8.125 11.6658 8.19085 11.8247 8.30806 11.9419C8.42527 12.0592 8.58424 12.125 8.75 12.125H11.25C11.297 12.1249 11.3439 12.1196 11.3898 12.1094L16.6242 10.9055L16.6484 10.8992C16.8082 10.8549 16.9788 10.8712 17.1273 10.945C17.2758 11.0188 17.3917 11.1449 17.4528 11.2991C17.5139 11.4533 17.5158 11.6246 17.4582 11.7801C17.4005 11.9356 17.2874 12.0643 17.1406 12.1414H17.143ZM12.8125 6.5C12.9669 6.50018 13.1211 6.48763 13.2734 6.4625C13.4448 6.97152 13.7583 7.42083 14.177 7.7573C14.5956 8.09378 15.1018 8.30335 15.6358 8.36123C16.1698 8.41912 16.7091 8.32291 17.1901 8.08397C17.6712 7.84503 18.0737 7.47336 18.3502 7.01289C18.6267 6.55243 18.7655 6.02242 18.7503 5.48555C18.7351 4.94867 18.5665 4.42737 18.2644 3.98328C17.9624 3.53919 17.5394 3.19088 17.0457 2.97953C16.5519 2.76818 16.008 2.70263 15.4781 2.79063C15.3131 2.30019 15.016 1.86479 14.6195 1.53233C14.223 1.19987 13.7424 0.983237 13.2307 0.90628C12.7191 0.829323 12.196 0.895021 11.7193 1.09615C11.2425 1.29727 10.8305 1.62602 10.5285 2.04622C10.2266 2.46642 10.0464 2.96179 10.0078 3.47779C9.96921 3.9938 10.0737 4.51045 10.3098 4.97089C10.546 5.43132 10.9045 5.81769 11.3461 6.08748C11.7876 6.35726 12.2951 6.50001 12.8125 6.5ZM17.5 5.5625C17.5 5.87153 17.4084 6.17363 17.2367 6.43058C17.065 6.68753 16.821 6.8878 16.5354 7.00606C16.2499 7.12432 15.9358 7.15527 15.6327 7.09498C15.3296 7.03469 15.0512 6.88588 14.8326 6.66736C14.6141 6.44884 14.4653 6.17043 14.405 5.86733C14.3447 5.56423 14.3757 5.25007 14.4939 4.96456C14.6122 4.67905 14.8125 4.43502 15.0694 4.26333C15.3264 4.09164 15.6285 4 15.9375 4C16.3519 4 16.7493 4.16462 17.0424 4.45765C17.3354 4.75067 17.5 5.1481 17.5 5.5625ZM12.8125 2.125C13.1534 2.12517 13.4848 2.2368 13.7563 2.44287C14.0279 2.64895 14.2245 2.93816 14.3164 3.26641C13.9963 3.49164 13.7267 3.7812 13.5249 4.11658C13.3232 4.45195 13.1936 4.82575 13.1445 5.21406C13.0354 5.23763 12.9241 5.24967 12.8125 5.25C12.3981 5.25 12.0007 5.08538 11.7076 4.79236C11.4146 4.49933 11.25 4.1019 11.25 3.6875C11.25 3.2731 11.4146 2.87567 11.7076 2.58265C12.0007 2.28962 12.3981 2.125 12.8125 2.125Z" fill="#808080"/>
</svg>
