<svg width="18" height="16" viewBox="0 0 18 16" fill="none" xmlns="http://www.w3.org/2000/svg">
<path d="M15.875 3.375H12.75V2.75C12.75 2.25272 12.5525 1.77581 12.2008 1.42417C11.8492 1.07254 11.3723 0.875 10.875 0.875H7.125C6.62772 0.875 6.15081 1.07254 5.79917 1.42417C5.44754 1.77581 5.25 2.25272 5.25 2.75V3.375H2.125C1.79348 3.375 1.47554 3.5067 1.24112 3.74112C1.0067 3.97554 0.875 4.29348 0.875 4.625V14.625C0.875 14.9565 1.0067 15.2745 1.24112 15.5089C1.47554 15.7433 1.79348 15.875 2.125 15.875H15.875C16.2065 15.875 16.5245 15.7433 16.7589 15.5089C16.9933 15.2745 17.125 14.9565 17.125 14.625V4.625C17.125 4.29348 16.9933 3.97554 16.7589 3.74112C16.5245 3.5067 16.2065 3.375 15.875 3.375ZM6.5 2.75C6.5 2.58424 6.56585 2.42527 6.68306 2.30806C6.80027 2.19085 6.95924 2.125 7.125 2.125H10.875C11.0408 2.125 11.1997 2.19085 11.3169 2.30806C11.4342 2.42527 11.5 2.58424 11.5 2.75V3.375H6.5V2.75ZM15.875 4.625V7.87578C13.7655 9.02404 11.4018 9.62543 9 9.625C6.59828 9.62544 4.23471 9.02434 2.125 7.87656V4.625H15.875ZM15.875 14.625H2.125V9.28438C4.26557 10.3314 6.61708 10.8755 9 10.875C11.383 10.8751 13.7344 10.3307 15.875 9.28359V14.625ZM7.125 7.75C7.125 7.58424 7.19085 7.42527 7.30806 7.30806C7.42527 7.19085 7.58424 7.125 7.75 7.125H10.25C10.4158 7.125 10.5747 7.19085 10.6919 7.30806C10.8092 7.42527 10.875 7.58424 10.875 7.75C10.875 7.91576 10.8092 8.07473 10.6919 8.19194C10.5747 8.30915 10.4158 8.375 10.25 8.375H7.75C7.58424 8.375 7.42527 8.30915 7.30806 8.19194C7.19085 8.07473 7.125 7.91576 7.125 7.75Z" fill="#373737"/>
</svg>
