<svg width="11" height="10" viewBox="0 0 11 10" fill="none" xmlns="http://www.w3.org/2000/svg">
<path d="M10.5 7.81669L6.40075 0.697782C6.29831 0.523372 6.15207 0.37876 5.97653 0.278279C5.80099 0.177799 5.60223 0.124939 5.39996 0.124939C5.1977 0.124939 4.99894 0.177799 4.8234 0.278279C4.64785 0.37876 4.50162 0.523372 4.39918 0.697782L0.299964 7.81669C0.201402 7.98538 0.149461 8.17725 0.149461 8.37263C0.149461 8.568 0.201402 8.75987 0.299964 8.92856C0.401087 9.10403 0.547075 9.24943 0.722945 9.34984C0.898816 9.45026 1.09824 9.50207 1.30074 9.49997H9.49918C9.70153 9.50191 9.90076 9.45001 10.0764 9.34961C10.2521 9.2492 10.398 9.10389 10.499 8.92856C10.5977 8.75995 10.6498 8.56813 10.65 8.37275C10.6502 8.17738 10.5984 7.98547 10.5 7.81669ZM5.02496 3.87497C5.02496 3.77551 5.06447 3.68013 5.1348 3.6098C5.20512 3.53948 5.30051 3.49997 5.39996 3.49997C5.49942 3.49997 5.5948 3.53948 5.66513 3.6098C5.73546 3.68013 5.77496 3.77551 5.77496 3.87497V5.74997C5.77496 5.84943 5.73546 5.94481 5.66513 6.01513C5.5948 6.08546 5.49942 6.12497 5.39996 6.12497C5.30051 6.12497 5.20512 6.08546 5.1348 6.01513C5.06447 5.94481 5.02496 5.84943 5.02496 5.74997V3.87497ZM5.39996 7.99997C5.28871 7.99997 5.17996 7.96698 5.08746 7.90517C4.99495 7.84336 4.92286 7.75551 4.88028 7.65273C4.83771 7.54995 4.82657 7.43685 4.84827 7.32773C4.86998 7.21862 4.92355 7.11839 5.00222 7.03972C5.08088 6.96106 5.18111 6.90748 5.29023 6.88578C5.39934 6.86407 5.51244 6.87521 5.61522 6.91779C5.71801 6.96036 5.80586 7.03246 5.86767 7.12496C5.92947 7.21746 5.96246 7.32622 5.96246 7.43747C5.96246 7.58665 5.9032 7.72973 5.79771 7.83522C5.69222 7.94071 5.54915 7.99997 5.39996 7.99997Z" fill="#C83532"/>
</svg>
