<svg width="14" height="9" viewBox="0 0 14 9" fill="none" xmlns="http://www.w3.org/2000/svg">
<path d="M14 0.5V4.5C14 4.63261 13.9473 4.75979 13.8536 4.85355C13.7598 4.94732 13.6326 5 13.5 5C13.3674 5 13.2402 4.94732 13.1464 4.85355C13.0527 4.75979 13 4.63261 13 4.5V1.70687L7.85375 6.85375C7.80731 6.90024 7.75217 6.93712 7.69147 6.96228C7.63077 6.98744 7.56571 7.00039 7.5 7.00039C7.43429 7.00039 7.36923 6.98744 7.30853 6.96228C7.24783 6.93712 7.19269 6.90024 7.14625 6.85375L5 4.70687L0.85375 8.85375C0.759929 8.94757 0.632682 9.00028 0.5 9.00028C0.367318 9.00028 0.24007 8.94757 0.14625 8.85375C0.0524293 8.75993 -0.000278473 8.63268 -0.000278473 8.5C-0.000278473 8.36732 0.0524293 8.24007 0.14625 8.14625L4.64625 3.64625C4.69269 3.59976 4.74783 3.56288 4.80853 3.53772C4.86923 3.51256 4.93429 3.49961 5 3.49961C5.06571 3.49961 5.13077 3.51256 5.19147 3.53772C5.25217 3.56288 5.30731 3.59976 5.35375 3.64625L7.5 5.79313L12.2931 1H9.5C9.36739 1 9.24021 0.947321 9.14645 0.853553C9.05268 0.759785 9 0.632608 9 0.5C9 0.367392 9.05268 0.240215 9.14645 0.146447C9.24021 0.0526785 9.36739 0 9.5 0H13.5C13.6326 0 13.7598 0.0526785 13.8536 0.146447C13.9473 0.240215 14 0.367392 14 0.5Z" fill="#2BAC47"/>
</svg>
