<svg width="40" height="40" viewBox="0 0 40 40" fill="none" xmlns="http://www.w3.org/2000/svg">
<path d="M27.4952 13.9667V34.062C27.4952 35.7439 26.1318 37.1073 24.4499 37.1073H3.5135C1.83166 37.1073 0.468201 35.7439 0.468201 34.062V6.0453C0.468201 4.36346 1.83166 3 3.5135 3H16.5471C16.8933 3 17.2314 3.07857 17.5374 3.22581C17.7677 3.33658 27.1774 12.7735 27.2892 13.0187C27.4237 13.3135 27.4952 13.6364 27.4952 13.9667Z" fill="#F1F1F1"/>
<path d="M27.4952 13.9669V15.3061H19.5531C17.1587 15.3061 15.2105 13.3555 15.2105 10.9589V3H16.5474C16.8781 3 17.2016 3.07187 17.4969 3.207C17.7427 3.31945 27.1826 12.781 27.2949 13.0309C27.4257 13.3224 27.4952 13.641 27.4952 13.9669Z" fill="#E3E0E4"/>
<path d="M27.4952 13.9669V15.3061H19.5531C17.1587 15.3061 15.2105 13.3555 15.2105 10.9589V3H16.5474C17.1534 3 17.7351 3.24134 18.1637 3.67073L26.8283 12.3536C27.2554 12.7815 27.4952 13.3616 27.4952 13.9669Z" fill="#E3E0E4"/>
<path d="M27.4952 13.9669V15.3061H19.5531C17.1587 15.3061 15.2105 13.3555 15.2105 10.9589V3H16.5474C16.8781 3 17.2016 3.07187 17.4969 3.207C17.7427 3.31945 27.1826 12.781 27.2949 13.0309C27.4257 13.3224 27.4952 13.641 27.4952 13.9669Z" fill="#E3E0E4"/>
<path d="M5.79747 37.1073H3.5135C1.83173 37.1073 0.468201 35.7438 0.468201 34.062V6.0453C0.468201 4.36353 1.83173 3 3.5135 3H5.79747C4.11571 3 2.75217 4.36353 2.75217 6.0453V34.062C2.75217 35.7438 4.11571 37.1073 5.79747 37.1073Z" fill="#E3E0E4"/>
<path d="M27.2904 13.022H19.5531C18.4164 13.022 17.4944 12.0978 17.4944 10.9588V3.20703C17.7411 3.31818 17.9688 3.47502 18.1636 3.67068L26.8283 12.3536C27.0224 12.5485 27.1793 12.7754 27.2904 13.022Z" fill="#A4A4A4"/>
<path d="M27.5 17.0833C21.747 17.0833 17.0833 21.7469 17.0833 27.4999C17.0833 33.2529 21.747 37.9166 27.5 37.9166C33.253 37.9166 37.9166 33.2529 37.9166 27.4999C37.9166 21.7469 33.253 17.0833 27.5 17.0833Z" fill="#111810"/>
<path fill-rule="evenodd" clip-rule="evenodd" d="M27.5 20.4167C28.1903 20.4167 28.75 20.9764 28.75 21.6667V33.3334C28.75 34.0237 28.1903 34.5834 27.5 34.5834C26.8097 34.5834 26.25 34.0237 26.25 33.3334V21.6667C26.25 20.9764 26.8097 20.4167 27.5 20.4167Z" fill="#ECEFF1"/>
<path fill-rule="evenodd" clip-rule="evenodd" d="M26.6162 20.7829C27.1044 20.2947 27.8957 20.2947 28.3839 20.7829L33.3839 25.7829C33.872 26.271 33.872 27.0624 33.3839 27.5505C32.8957 28.0387 32.1044 28.0387 31.6162 27.5505L27.5 23.4345L23.3839 27.5505C22.8957 28.0387 22.1044 28.0387 21.6162 27.5505C21.128 27.0624 21.128 26.271 21.6162 25.7829L26.6162 20.7829Z" fill="#ECEFF1"/>
</svg>
