<svg width="20" height="20" viewBox="0 0 20 20" fill="none" xmlns="http://www.w3.org/2000/svg">
<path d="M10 0.25C11.9284 0.25 13.8134 0.821828 15.4168 1.89317C17.0202 2.96451 18.2699 4.48726 19.0078 6.26884C19.7458 8.05042 19.9389 10.0108 19.5627 11.9021C19.1864 13.7934 18.2578 15.5307 16.8943 16.8943C15.5307 18.2579 13.7934 19.1865 11.9021 19.5627C10.0108 19.9389 8.05041 19.7458 6.26883 19.0078C4.48725 18.2699 2.96451 17.0202 1.89317 15.4168C0.821823 13.8134 0.249996 11.9284 0.249996 10C0.252726 7.41498 1.28083 4.93661 3.10872 3.10872C4.93661 1.28084 7.41497 0.25273 10 0.25ZM10 18.25C11.6317 18.25 13.2267 17.7661 14.5835 16.8596C15.9402 15.9531 16.9976 14.6646 17.622 13.1571C18.2464 11.6496 18.4098 9.99085 18.0915 8.3905C17.7731 6.79016 16.9874 5.32015 15.8336 4.16637C14.6798 3.01259 13.2098 2.22685 11.6095 1.90852C10.0091 1.59019 8.35035 1.75357 6.84286 2.37799C5.33537 3.00242 4.04689 4.05984 3.14037 5.41655C2.23385 6.77325 1.75 8.3683 1.75 10C1.75248 12.1873 2.62247 14.2843 4.16911 15.8309C5.71574 17.3775 7.81272 18.2475 10 18.25ZM7.96937 6.78063L11.1897 10L7.96937 13.2194C7.89969 13.2891 7.84441 13.3718 7.8067 13.4628C7.76899 13.5539 7.74958 13.6515 7.74958 13.75C7.74958 13.8485 7.76899 13.9461 7.8067 14.0372C7.84441 14.1282 7.89969 14.2109 7.96937 14.2806C8.03905 14.3503 8.12178 14.4056 8.21282 14.4433C8.30387 14.481 8.40145 14.5004 8.5 14.5004C8.59854 14.5004 8.69612 14.481 8.78717 14.4433C8.87821 14.4056 8.96094 14.3503 9.03062 14.2806L12.7806 10.5306C12.8504 10.461 12.9057 10.3783 12.9434 10.2872C12.9812 10.1962 13.0006 10.0986 13.0006 10C13.0006 9.90144 12.9812 9.80384 12.9434 9.7128C12.9057 9.62175 12.8504 9.53903 12.7806 9.46937L9.03062 5.71937C8.96094 5.64969 8.87821 5.59442 8.78717 5.5567C8.69612 5.51899 8.59854 5.49958 8.5 5.49958C8.40145 5.49958 8.30387 5.51899 8.21282 5.5567C8.12178 5.59442 8.03905 5.64969 7.96937 5.71937C7.89969 5.78906 7.84441 5.87178 7.8067 5.96283C7.76899 6.05387 7.74958 6.15145 7.74958 6.25C7.74958 6.34855 7.76899 6.44613 7.8067 6.53717C7.84441 6.62822 7.89969 6.71094 7.96937 6.78063Z" fill="#F75803"/>
</svg>
