<svg width="12" height="18" viewBox="0 0 12 18" fill="none" xmlns="http://www.w3.org/2000/svg">
<path d="M3.34375 0.875C1.59609 0.875 0.375 2.41719 0.375 4.625C0.375 6.83281 1.59609 8.375 3.34375 8.375C5.09141 8.375 6.3125 6.83281 6.3125 4.625C6.3125 2.41719 5.09141 0.875 3.34375 0.875ZM3.34375 7.125C1.98672 7.125 1.625 5.55391 1.625 4.625C1.625 3.69609 1.98672 2.125 3.34375 2.125C4.70078 2.125 5.0625 3.69609 5.0625 4.625C5.0625 5.55391 4.70078 7.125 3.34375 7.125ZM8.96875 9.625C7.22109 9.625 6 11.1672 6 13.375C6 15.5828 7.22109 17.125 8.96875 17.125C10.7164 17.125 11.9375 15.5828 11.9375 13.375C11.9375 11.1672 10.7164 9.625 8.96875 9.625ZM8.96875 15.875C7.61172 15.875 7.25 14.3039 7.25 13.375C7.25 12.4461 7.61172 10.875 8.96875 10.875C10.3258 10.875 10.6875 12.4461 10.6875 13.375C10.6875 14.3039 10.3258 15.875 8.96875 15.875ZM7.32812 2.84531C7.28825 2.77355 7.26291 2.69464 7.25354 2.61308C7.24417 2.53152 7.25096 2.44891 7.27352 2.36998C7.29609 2.29105 7.33398 2.21733 7.38504 2.15304C7.43609 2.08876 7.49932 2.03516 7.57109 1.99531L9.44609 0.953906C9.54123 0.900969 9.64854 0.873799 9.7574 0.875087C9.86626 0.876376 9.9729 0.906078 10.0667 0.961253C10.1606 1.01643 10.2384 1.09516 10.2925 1.18966C10.3465 1.28415 10.375 1.39113 10.375 1.5V7.75C10.375 7.91576 10.3092 8.07473 10.1919 8.19194C10.0747 8.30915 9.91576 8.375 9.75 8.375C9.58424 8.375 9.42527 8.30915 9.30806 8.19194C9.19085 8.07473 9.125 7.91576 9.125 7.75V2.5625L8.17813 3.08828C8.10636 3.12815 8.02745 3.1535 7.94589 3.16287C7.86433 3.17224 7.78173 3.16545 7.70279 3.14288C7.62386 3.12032 7.55014 3.08243 7.48586 3.03137C7.42157 2.98031 7.36797 2.91709 7.32812 2.84531ZM4.125 10.25V16.5C4.125 16.6658 4.05915 16.8247 3.94194 16.9419C3.82473 17.0592 3.66576 17.125 3.5 17.125C3.33424 17.125 3.17527 17.0592 3.05806 16.9419C2.94085 16.8247 2.875 16.6658 2.875 16.5V11.3125L1.92812 11.8383C1.78308 11.9187 1.61205 11.9382 1.45264 11.8924C1.29324 11.8467 1.15852 11.7396 1.07812 11.5945C0.997731 11.4495 0.978247 11.2785 1.02396 11.119C1.06967 10.9596 1.17683 10.8249 1.32188 10.7445L3.19688 9.70312C3.29204 9.65035 3.39934 9.62333 3.50816 9.62475C3.61697 9.62617 3.72353 9.65598 3.81728 9.71122C3.91104 9.76647 3.98875 9.84523 4.04272 9.93973C4.09669 10.0342 4.12505 10.1412 4.125 10.25Z" fill="#808080"/>
</svg>
