<svg width="18" height="6" viewBox="0 0 18 6" fill="none" xmlns="http://www.w3.org/2000/svg">
<path d="M8.66016 0.812499C9.0928 0.812499 9.51574 0.940794 9.87547 1.18116C10.2352 1.42153 10.5156 1.76317 10.6811 2.16288C10.8467 2.56259 10.89 3.00243 10.8056 3.42676C10.7212 3.85109 10.5129 4.24087 10.207 4.54679C9.90103 4.85272 9.51125 5.06106 9.08692 5.14547C8.66258 5.22987 8.22275 5.18655 7.82304 5.02099C7.42333 4.85542 7.08168 4.57504 6.84132 4.21531C6.60095 3.85558 6.47266 3.43265 6.47266 3C6.47266 2.41984 6.70313 1.86344 7.11336 1.4532C7.5236 1.04297 8.08 0.812499 8.66016 0.812499ZM4.59766 3C4.59766 2.56735 4.46936 2.14442 4.229 1.78469C3.98863 1.42496 3.64699 1.14458 3.24728 0.979012C2.84756 0.813446 2.40773 0.770126 1.9834 0.854531C1.55906 0.938936 1.16929 1.14727 0.863361 1.4532C0.557434 1.75913 0.349095 2.14891 0.264689 2.57324C0.180284 2.99757 0.223604 3.43741 0.389171 3.83712C0.554737 4.23683 0.835115 4.57847 1.19485 4.81884C1.55458 5.0592 1.97751 5.1875 2.41016 5.1875C2.99032 5.1875 3.54672 4.95703 3.95695 4.54679C4.36719 4.13656 4.59766 3.58016 4.59766 3ZM12.7227 3C12.7227 3.43265 12.851 3.85558 13.0913 4.21531C13.3317 4.57504 13.6733 4.85542 14.073 5.02099C14.4728 5.18655 14.9126 5.22987 15.3369 5.14547C15.7613 5.06106 16.151 4.85272 16.457 4.54679C16.7629 4.24087 16.9712 3.85109 17.0556 3.42676C17.14 3.00243 17.0967 2.56259 16.9311 2.16288C16.7656 1.76317 16.4852 1.42153 16.1255 1.18116C15.7657 0.940794 15.3428 0.812499 14.9102 0.812499C14.33 0.812499 13.7736 1.04297 13.3634 1.4532C12.9531 1.86344 12.7227 2.41984 12.7227 3Z" fill="white"/>
</svg>
