<svg width="18" height="5" viewBox="0 0 18 5" fill="none" xmlns="http://www.w3.org/2000/svg">
<path d="M9 0.312499C9.43265 0.312499 9.85558 0.440794 10.2153 0.681159C10.575 0.921525 10.8554 1.26317 11.021 1.66288C11.1866 2.06259 11.2299 2.50243 11.1455 2.92676C11.0611 3.35109 10.8527 3.74087 10.5468 4.04679C10.2409 4.35272 9.8511 4.56106 9.42676 4.64547C9.00243 4.72987 8.5626 4.68655 8.16288 4.52099C7.76317 4.35542 7.42153 4.07504 7.18116 3.71531C6.9408 3.35558 6.8125 2.93265 6.8125 2.5C6.8125 1.91984 7.04297 1.36344 7.45321 0.953202C7.86344 0.542966 8.41984 0.312499 9 0.312499ZM4.9375 2.5C4.9375 2.06735 4.80921 1.64442 4.56884 1.28469C4.32848 0.924956 3.98683 0.644579 3.58712 0.479012C3.18741 0.313446 2.74757 0.270126 2.32324 0.354531C1.89891 0.438936 1.50913 0.647275 1.2032 0.953202C0.897278 1.25913 0.688938 1.64891 0.604533 2.07324C0.520128 2.49757 0.563448 2.93741 0.729015 3.33712C0.894581 3.73683 1.17496 4.07847 1.53469 4.31884C1.89442 4.5592 2.31735 4.6875 2.75 4.6875C3.33016 4.6875 3.88656 4.45703 4.2968 4.04679C4.70703 3.63656 4.9375 3.08016 4.9375 2.5ZM13.0625 2.5C13.0625 2.93265 13.1908 3.35558 13.4312 3.71531C13.6715 4.07504 14.0132 4.35542 14.4129 4.52099C14.8126 4.68655 15.2524 4.72987 15.6768 4.64547C16.1011 4.56106 16.4909 4.35272 16.7968 4.04679C17.1027 3.74087 17.3111 3.35109 17.3955 2.92676C17.4799 2.50243 17.4366 2.06259 17.271 1.66288C17.1054 1.26317 16.825 0.921525 16.4653 0.681159C16.1056 0.440794 15.6826 0.312499 15.25 0.312499C14.6698 0.312499 14.1134 0.542966 13.7032 0.953202C13.293 1.36344 13.0625 1.91984 13.0625 2.5Z" fill="#808080"/>
</svg>
