<svg width="18" height="18" viewBox="0 0 18 18" fill="none" xmlns="http://www.w3.org/2000/svg">
<path d="M14.7181 16.5C15.1165 15.5985 15.2954 14.6154 15.2399 13.6314C15.1845 12.6474 14.8963 11.6906 14.3992 10.8396C13.902 9.98856 13.21 9.26767 12.3801 8.73612C11.5502 8.20457 10.6059 7.87753 9.625 7.78187V5.25H11.5C12.6599 5.24868 13.7719 4.78732 14.5921 3.96713C15.4123 3.14695 15.8737 2.03492 15.875 0.875C15.875 0.70924 15.8092 0.550268 15.6919 0.433058C15.5747 0.315848 15.4158 0.25 15.25 0.25H12.75C11.854 0.25169 10.98 0.528268 10.2462 1.04239C9.51232 1.55652 8.95388 2.28343 8.64625 3.125C8.23721 2.61796 7.71991 2.20886 7.13225 1.92769C6.54459 1.64651 5.90146 1.50038 5.25 1.5H2.75C2.58424 1.5 2.42527 1.56585 2.30806 1.68306C2.19085 1.80027 2.125 1.95924 2.125 2.125C2.12632 3.28492 2.58768 4.39695 3.40787 5.21713C4.22805 6.03732 5.34008 6.49868 6.5 6.5H8.375V7.78187C7.39408 7.87753 6.44985 8.20457 5.6199 8.73612C4.78995 9.26767 4.09797 9.98856 3.60082 10.8396C3.10367 11.6906 2.81553 12.6474 2.76008 13.6314C2.70464 14.6154 2.88347 15.5985 3.28187 16.5H0.25V17.75H17.75V16.5H14.7181ZM12.75 1.5H14.5625C14.4174 2.20537 14.0336 2.83916 13.4758 3.29455C12.9179 3.74994 12.2201 3.99909 11.5 4H9.6875C9.83256 3.29463 10.2164 2.66084 10.7742 2.20545C11.3321 1.75006 12.0299 1.50091 12.75 1.5ZM6.5 5.25C5.77987 5.24909 5.08207 4.99994 4.52422 4.54455C3.96636 4.08916 3.58256 3.45537 3.4375 2.75H5.25C5.97013 2.75091 6.66793 3.00006 7.22578 3.45545C7.78364 3.91084 8.16744 4.54463 8.3125 5.25H6.5ZM4 14C3.99618 13.2308 4.16987 12.4711 4.50758 11.78C4.84528 11.0889 5.33788 10.485 5.94705 10.0154C6.55623 9.54571 7.26555 9.22294 8.01983 9.07216C8.7741 8.92138 9.553 8.94666 10.2959 9.14603C11.0388 9.3454 11.7257 9.71349 12.3032 10.2217C12.8806 10.7298 13.333 11.3644 13.6252 12.0759C13.9174 12.7875 14.0414 13.5568 13.9877 14.3242C13.9341 15.0915 13.704 15.8361 13.3156 16.5H10.3875C10.6319 16.2321 10.793 15.8988 10.851 15.5408C10.9091 15.1829 10.8617 14.8157 10.7145 14.4843C10.5674 14.1528 10.3268 13.8714 10.0224 13.6744C9.7179 13.4774 9.36264 13.3734 9 13.375C8.87639 13.375 8.75555 13.3383 8.65277 13.2697C8.54999 13.201 8.46988 13.1034 8.42257 12.9892C8.37527 12.875 8.36289 12.7493 8.38701 12.6281C8.41113 12.5068 8.47065 12.3955 8.55806 12.3081C8.64547 12.2206 8.75683 12.1611 8.87807 12.137C8.99931 12.1129 9.12497 12.1253 9.23918 12.1726C9.35338 12.2199 9.45099 12.3 9.51967 12.4028C9.58834 12.5055 9.625 12.6264 9.625 12.75H10.875C10.8734 12.3636 10.7524 11.9871 10.5287 11.6721C10.3049 11.357 9.98932 11.1188 9.625 10.99V10.25H8.375V10.99C7.95832 11.1368 7.60703 11.4263 7.38335 11.8072C7.15967 12.1882 7.07802 12.636 7.15288 13.0714C7.22774 13.5067 7.45427 13.9016 7.79235 14.1859C8.13043 14.4703 8.55823 14.6258 9 14.625C9.12361 14.625 9.24445 14.6617 9.34723 14.7303C9.45001 14.799 9.53012 14.8966 9.57743 15.0108C9.62473 15.125 9.63711 15.2507 9.61299 15.3719C9.58887 15.4932 9.52935 15.6045 9.44194 15.6919C9.35453 15.7794 9.24317 15.8389 9.12193 15.863C9.00069 15.8871 8.87503 15.8747 8.76082 15.8274C8.64662 15.7801 8.54901 15.7 8.48033 15.5972C8.41166 15.4945 8.375 15.3736 8.375 15.25H7.125C7.12639 15.7128 7.3002 16.1585 7.6125 16.5H4.68438C4.23908 15.7419 4.00292 14.8792 4 14Z" fill="#808080"/>
</svg>
