<svg width="25" height="21" viewBox="0 0 25 21" fill="none" xmlns="http://www.w3.org/2000/svg">
<path d="M7.09648 9.6232C6.94662 8.75107 6.97359 7.85772 7.17578 6.99621C7.43859 5.85547 7.95629 5.0625 8.4332 5.0625C8.72434 5.0625 8.76625 5.1384 8.78664 5.17578C8.88633 5.35816 9.23977 6.41394 7.3559 10.4456C7.2335 10.1841 7.14628 9.90759 7.09648 9.6232ZM24.2812 2.34375V18.6562C24.2812 19.137 24.0903 19.598 23.7504 19.9379C23.4105 20.2778 22.9495 20.4688 22.4688 20.4688H2.53125C2.05055 20.4688 1.58953 20.2778 1.24962 19.9379C0.909709 19.598 0.71875 19.137 0.71875 18.6562V2.34375C0.71875 1.86305 0.909709 1.40203 1.24962 1.06212C1.58953 0.722209 2.05055 0.53125 2.53125 0.53125H22.4688C22.9495 0.53125 23.4105 0.722209 23.7504 1.06212C24.0903 1.40203 24.2812 1.86305 24.2812 2.34375ZM7.51562 14.125C7.74219 13.7183 7.96195 13.2958 8.18398 12.863C9.35531 12.8268 10.7 12.0055 12.2021 10.4071C12.7685 11.5048 13.4912 12.1346 14.3397 12.2819C15.2459 12.4382 16.1522 12.0123 17.0516 11.0132C17.7313 11.6396 18.8811 12.3125 20.654 12.3125C20.8943 12.3125 21.1248 12.217 21.2948 12.0471C21.4648 11.8771 21.5602 11.6466 21.5602 11.4062C21.5602 11.1659 21.4648 10.9354 21.2948 10.7654C21.1248 10.5955 20.8943 10.5 20.654 10.5C18.6251 10.5 17.9013 9.2675 17.8401 9.15648C17.7734 9.01298 17.6695 8.88993 17.5393 8.8001C17.409 8.71027 17.2571 8.65692 17.0992 8.64559C16.9384 8.63438 16.7776 8.66627 16.6332 8.73795C16.4888 8.80964 16.3662 8.91853 16.2779 9.0534C15.5099 10.1862 14.9333 10.5442 14.6478 10.4955C14.1947 10.4173 13.6113 9.36266 13.3757 8.45641C13.3337 8.29326 13.2472 8.14502 13.1257 8.02835C13.0042 7.91167 12.8525 7.83116 12.6878 7.79587C12.5231 7.76057 12.3518 7.77188 12.1932 7.82853C12.0345 7.88518 11.8948 7.98492 11.7897 8.11656C10.7838 9.35586 9.94324 10.1318 9.28281 10.5702C11.0727 6.53176 10.7861 5.0659 10.3703 4.30578C10.1607 3.91156 9.62152 3.25 8.4332 3.25C7.02398 3.25 5.89344 4.49609 5.40973 6.58727C5.15266 7.69526 5.12068 8.8436 5.3157 9.96418C5.50828 10.9724 5.90137 11.7461 6.46664 12.2434C6.1268 12.9016 5.77676 13.5382 5.44711 14.125H4.34375C4.1034 14.125 3.87289 14.2205 3.70293 14.3904C3.53298 14.5604 3.4375 14.7909 3.4375 15.0312C3.4375 15.2716 3.53298 15.5021 3.70293 15.6721C3.87289 15.842 4.1034 15.9375 4.34375 15.9375H4.39359C3.91102 16.7441 3.58816 17.2504 3.58023 17.2618C3.45074 17.4643 3.407 17.7099 3.45862 17.9446C3.51025 18.1794 3.65301 18.384 3.85551 18.5135C4.058 18.643 4.30365 18.6867 4.5384 18.6351C4.77315 18.5835 4.97778 18.4407 5.10727 18.2382C5.14805 18.1759 5.72691 17.2674 6.49949 15.9375H20.6562C20.8966 15.9375 21.1271 15.842 21.2971 15.6721C21.467 15.5021 21.5625 15.2716 21.5625 15.0312C21.5625 14.7909 21.467 14.5604 21.2971 14.3904C21.1271 14.2205 20.8966 14.125 20.6562 14.125H7.51562Z" fill="black"/>
</svg>
