<svg width="14" height="14" viewBox="0 0 14 14" fill="none" xmlns="http://www.w3.org/2000/svg">
<path d="M6.99995 0.5C5.87775 0.499755 4.77459 0.790055 3.79786 1.34264C2.82113 1.89523 2.00411 2.69128 1.42631 3.65331C0.848514 4.61534 0.52963 5.71058 0.500696 6.83241C0.471763 7.95425 0.733766 9.06446 1.2612 10.055L0.551829 12.1831C0.493069 12.3593 0.484542 12.5484 0.527203 12.7292C0.569863 12.9099 0.662026 13.0753 0.793361 13.2066C0.924696 13.3379 1.09001 13.4301 1.27078 13.4728C1.45155 13.5154 1.64063 13.5069 1.81683 13.4481L3.94495 12.7388C4.81668 13.2024 5.78259 13.4614 6.76935 13.496C7.7561 13.5306 8.73779 13.34 9.63987 12.9386C10.542 12.5372 11.3407 11.9355 11.9756 11.1793C12.6104 10.4231 13.0647 9.53218 13.3038 8.57421C13.5429 7.61624 13.5606 6.61638 13.3557 5.65052C13.1507 4.68467 12.7283 3.77821 12.1207 2.99995C11.5131 2.22169 10.7362 1.59208 9.8489 1.15891C8.96162 0.725743 7.98732 0.500405 6.99995 0.5ZM6.99995 12.5C6.03306 12.5007 5.08314 12.246 4.2462 11.7619C4.18493 11.7263 4.1168 11.7042 4.04633 11.697C3.97586 11.6898 3.90466 11.6976 3.83745 11.72L1.49995 12.5L2.27933 10.1625C2.3018 10.0953 2.30974 10.0242 2.30262 9.95369C2.29551 9.88323 2.27351 9.81507 2.23808 9.75375C1.63181 8.70557 1.3884 7.48661 1.5456 6.28598C1.7028 5.08534 2.25182 3.97014 3.10751 3.11337C3.96319 2.2566 5.0777 1.70617 6.27814 1.54745C7.47858 1.38873 8.69784 1.63061 9.74679 2.23555C10.7957 2.8405 11.6157 3.77469 12.0796 4.89322C12.5434 6.01175 12.6251 7.25208 12.3121 8.42181C11.9991 9.59153 11.3088 10.6253 10.3483 11.3626C9.38781 12.1 8.21084 12.4998 6.99995 12.5Z" fill="#A4A4A4"/>
</svg>
