<svg width="13" height="14" viewBox="0 0 13 14" fill="none" xmlns="http://www.w3.org/2000/svg">
<path d="M12.3075 0.181767C12.2476 0.135098 12.1779 0.102683 12.1036 0.0869804C12.0293 0.0712781 11.9524 0.0727012 11.8788 0.0911416L3.87875 2.09114C3.77058 2.11818 3.67455 2.1806 3.60593 2.26847C3.5373 2.35635 3.50002 2.46464 3.5 2.57614V9.45614C3.0829 9.17745 2.58462 9.04614 2.08434 9.08308C1.58407 9.12001 1.11048 9.32307 0.73882 9.65999C0.367164 9.99691 0.118759 10.4484 0.0330711 10.9426C-0.0526166 11.4369 0.0293278 11.9456 0.265885 12.388C0.502443 12.8304 0.880044 13.181 1.3387 13.3842C1.79735 13.5873 2.31075 13.6314 2.79732 13.5094C3.28389 13.3874 3.71573 13.1062 4.02423 12.7107C4.33273 12.3151 4.50019 11.8278 4.5 11.3261V2.96677L11.5 1.21677V7.45614C11.0829 7.17745 10.5846 7.04614 10.0843 7.08308C9.58407 7.12001 9.11048 7.32307 8.73882 7.65999C8.36716 7.99691 8.11876 8.44837 8.03307 8.94264C7.94738 9.4369 8.02933 9.94563 8.26589 10.388C8.50244 10.8304 8.88004 11.181 9.3387 11.3842C9.79735 11.5873 10.3107 11.6314 10.7973 11.5094C11.2839 11.3874 11.7157 11.1062 12.0242 10.7107C12.3327 10.3151 12.5002 9.82778 12.5 9.32614V0.576142C12.5 0.500095 12.4827 0.425046 12.4493 0.356706C12.416 0.288366 12.3675 0.228535 12.3075 0.181767ZM2.25 12.5761C2.00278 12.5761 1.7611 12.5028 1.55554 12.3655C1.34998 12.2281 1.18976 12.0329 1.09515 11.8045C1.00054 11.5761 0.97579 11.3248 1.02402 11.0823C1.07225 10.8398 1.1913 10.6171 1.36612 10.4423C1.54094 10.2674 1.76366 10.1484 2.00614 10.1002C2.24862 10.0519 2.49995 10.0767 2.72836 10.1713C2.95676 10.2659 3.15199 10.4261 3.28934 10.6317C3.42669 10.8372 3.5 11.0789 3.5 11.3261C3.5 11.6577 3.36831 11.9756 3.13389 12.21C2.89947 12.4444 2.58152 12.5761 2.25 12.5761ZM10.25 10.5761C10.0028 10.5761 9.7611 10.5028 9.55554 10.3655C9.34998 10.2281 9.18976 10.0329 9.09515 9.8045C9.00054 9.57609 8.97579 9.32475 9.02402 9.08228C9.07225 8.8398 9.1913 8.61707 9.36612 8.44226C9.54093 8.26744 9.76366 8.14839 10.0061 8.10016C10.2486 8.05193 10.4999 8.07668 10.7284 8.17129C10.9568 8.2659 11.152 8.42612 11.2893 8.63168C11.4267 8.83724 11.5 9.07891 11.5 9.32614C11.5 9.65766 11.3683 9.9756 11.1339 10.21C10.8995 10.4444 10.5815 10.5761 10.25 10.5761Z" fill="#808080"/>
</svg>
