<svg width="12" height="18" viewBox="0 0 12 18" fill="none" xmlns="http://www.w3.org/2000/svg">
<path d="M7.875 8.375H6.625V3.375H7.25C7.91304 3.375 8.54893 3.63839 9.01777 4.10723C9.48661 4.57607 9.75 5.21196 9.75 5.875C9.75 6.04076 9.81585 6.19973 9.93306 6.31694C10.0503 6.43415 10.2092 6.5 10.375 6.5C10.5408 6.5 10.6997 6.43415 10.8169 6.31694C10.9342 6.19973 11 6.04076 11 5.875C10.999 4.88076 10.6035 3.92753 9.90051 3.22449C9.19747 2.52145 8.24424 2.12603 7.25 2.125H6.625V0.875C6.625 0.70924 6.55915 0.550268 6.44194 0.433058C6.32473 0.315848 6.16576 0.25 6 0.25C5.83424 0.25 5.67527 0.315848 5.55806 0.433058C5.44085 0.550268 5.375 0.70924 5.375 0.875V2.125H4.75C3.75544 2.125 2.80161 2.52009 2.09835 3.22335C1.39509 3.92661 1 4.88044 1 5.875C1 6.86956 1.39509 7.82339 2.09835 8.52665C2.80161 9.22991 3.75544 9.625 4.75 9.625H5.375V14.625H4.125C3.46196 14.625 2.82607 14.3616 2.35723 13.8928C1.88839 13.4239 1.625 12.788 1.625 12.125C1.625 11.9592 1.55915 11.8003 1.44194 11.6831C1.32473 11.5658 1.16576 11.5 1 11.5C0.83424 11.5 0.675269 11.5658 0.558058 11.6831C0.440848 11.8003 0.375 11.9592 0.375 12.125C0.376034 13.1192 0.771454 14.0725 1.47449 14.7755C2.17753 15.4785 3.13076 15.874 4.125 15.875H5.375V17.125C5.375 17.2908 5.44085 17.4497 5.55806 17.5669C5.67527 17.6842 5.83424 17.75 6 17.75C6.16576 17.75 6.32473 17.6842 6.44194 17.5669C6.55915 17.4497 6.625 17.2908 6.625 17.125V15.875H7.875C8.86956 15.875 9.82339 15.4799 10.5267 14.7767C11.2299 14.0734 11.625 13.1196 11.625 12.125C11.625 11.1304 11.2299 10.1766 10.5267 9.47335C9.82339 8.77009 8.86956 8.375 7.875 8.375ZM4.75 8.375C4.08696 8.375 3.45107 8.11161 2.98223 7.64277C2.51339 7.17393 2.25 6.53804 2.25 5.875C2.25 5.21196 2.51339 4.57607 2.98223 4.10723C3.45107 3.63839 4.08696 3.375 4.75 3.375H5.375V8.375H4.75ZM7.875 14.625H6.625V9.625H7.875C8.53804 9.625 9.17393 9.88839 9.64277 10.3572C10.1116 10.8261 10.375 11.462 10.375 12.125C10.375 12.788 10.1116 13.4239 9.64277 13.8928C9.17393 14.3616 8.53804 14.625 7.875 14.625Z" fill="#808080"/>
</svg>
