<svg width="18" height="12" viewBox="0 0 18 12" fill="none" xmlns="http://www.w3.org/2000/svg">
<path d="M17.75 1.375V6.375C17.75 6.54076 17.6841 6.69973 17.5669 6.81694C17.4497 6.93415 17.2907 7 17.125 7C16.9592 7 16.8002 6.93415 16.683 6.81694C16.5658 6.69973 16.5 6.54076 16.5 6.375V2.88359L10.0672 9.31719C10.0091 9.3753 9.94019 9.4214 9.86432 9.45285C9.78844 9.4843 9.70712 9.50049 9.62498 9.50049C9.54285 9.50049 9.46152 9.4843 9.38564 9.45285C9.30977 9.4214 9.24084 9.3753 9.18279 9.31719L6.49998 6.63359L1.31717 11.8172C1.19989 11.9345 1.04083 12.0003 0.874981 12.0003C0.709129 12.0003 0.550069 11.9345 0.432794 11.8172C0.315518 11.6999 0.249634 11.5409 0.249634 11.375C0.249634 11.2091 0.315518 11.0501 0.432794 10.9328L6.05779 5.30781C6.11584 5.2497 6.18477 5.2036 6.26064 5.17215C6.33652 5.1407 6.41785 5.12451 6.49998 5.12451C6.58212 5.12451 6.66344 5.1407 6.73932 5.17215C6.81519 5.2036 6.88412 5.2497 6.94217 5.30781L9.62498 7.99141L15.6164 2H12.125C11.9592 2 11.8002 1.93415 11.683 1.81694C11.5658 1.69973 11.5 1.54076 11.5 1.375C11.5 1.20924 11.5658 1.05027 11.683 0.933058C11.8002 0.815848 11.9592 0.75 12.125 0.75H17.125C17.2907 0.75 17.4497 0.815848 17.5669 0.933058C17.6841 1.05027 17.75 1.20924 17.75 1.375Z" fill="#808080"/>
</svg>
