<svg width="18" height="15" viewBox="0 0 18 15" fill="none" xmlns="http://www.w3.org/2000/svg">
<path d="M15.875 0.625H2.125C1.79348 0.625 1.47554 0.756696 1.24112 0.991116C1.0067 1.22554 0.875 1.54348 0.875 1.875V13.125C0.875 13.4565 1.0067 13.7745 1.24112 14.0089C1.47554 14.2433 1.79348 14.375 2.125 14.375H15.875C16.2065 14.375 16.5245 14.2433 16.7589 14.0089C16.9933 13.7745 17.125 13.4565 17.125 13.125V1.875C17.125 1.54348 16.9933 1.22554 16.7589 0.991116C16.5245 0.756696 16.2065 0.625 15.875 0.625ZM15.875 1.875V9.90234L13.8383 7.86641C13.7222 7.7503 13.5844 7.6582 13.4327 7.59537C13.281 7.53253 13.1185 7.50019 12.9543 7.50019C12.7901 7.50019 12.6276 7.53253 12.4759 7.59537C12.3242 7.6582 12.1864 7.7503 12.0703 7.86641L10.5078 9.42891L7.07031 5.99141C6.83592 5.75716 6.5181 5.62558 6.18672 5.62558C5.85534 5.62558 5.53752 5.75716 5.30312 5.99141L2.125 9.16953V1.875H15.875ZM2.125 10.9375L6.1875 6.875L12.4375 13.125H2.125V10.9375ZM15.875 13.125H14.2055L11.393 10.3125L12.9555 8.75L15.875 11.6703V13.125ZM10.25 5.3125C10.25 5.12708 10.305 4.94582 10.408 4.79165C10.511 4.63748 10.6574 4.51732 10.8287 4.44636C11 4.37541 11.1885 4.35684 11.3704 4.39301C11.5523 4.42919 11.7193 4.51848 11.8504 4.64959C11.9815 4.7807 12.0708 4.94775 12.107 5.1296C12.1432 5.31146 12.1246 5.49996 12.0536 5.67127C11.9827 5.84257 11.8625 5.98899 11.7083 6.092C11.5542 6.19502 11.3729 6.25 11.1875 6.25C10.9389 6.25 10.7004 6.15123 10.5246 5.97541C10.3488 5.7996 10.25 5.56114 10.25 5.3125Z" fill="#5B5B5B"/>
</svg>
