<svg width="14" height="14" viewBox="0 0 14 14" fill="none" xmlns="http://www.w3.org/2000/svg">
<path d="M13.4324 12.3259C12.4805 10.6803 11.0137 9.50029 9.3018 8.94092C10.1486 8.43683 10.8065 7.66872 11.1744 6.75454C11.5424 5.84036 11.6001 4.83067 11.3387 3.88052C11.0773 2.93036 10.5112 2.09229 9.72741 1.495C8.94359 0.897704 7.98538 0.574219 6.99993 0.574219C6.01447 0.574219 5.05626 0.897704 4.27244 1.495C3.48863 2.09229 2.92255 2.93036 2.66114 3.88052C2.39973 4.83067 2.45744 5.84036 2.82542 6.75454C3.19339 7.66872 3.85128 8.43683 4.69805 8.94092C2.98618 9.49967 1.5193 10.6797 0.567425 12.3259C0.532518 12.3828 0.509365 12.4462 0.499331 12.5122C0.489297 12.5782 0.492585 12.6455 0.509003 12.7103C0.52542 12.775 0.554634 12.8358 0.59492 12.889C0.635206 12.9422 0.685749 12.9869 0.743566 13.0203C0.801383 13.0537 0.865303 13.0752 0.931555 13.0834C0.997807 13.0917 1.06505 13.0867 1.12931 13.0686C1.19358 13.0504 1.25356 13.0196 1.30573 12.978C1.3579 12.9363 1.40119 12.8846 1.43305 12.8259C2.61055 10.7909 4.6918 9.57592 6.99993 9.57592C9.30805 9.57592 11.3893 10.7909 12.5668 12.8259C12.5987 12.8846 12.642 12.9363 12.6941 12.978C12.7463 13.0196 12.8063 13.0504 12.8705 13.0686C12.9348 13.0867 13.002 13.0917 13.0683 13.0834C13.1345 13.0752 13.1985 13.0537 13.2563 13.0203C13.3141 12.9869 13.3646 12.9422 13.4049 12.889C13.4452 12.8358 13.4744 12.775 13.4908 12.7103C13.5073 12.6455 13.5106 12.5782 13.5005 12.5122C13.4905 12.4462 13.4673 12.3828 13.4324 12.3259ZM3.49993 5.07592C3.49993 4.38368 3.7052 3.707 4.08978 3.13142C4.47437 2.55585 5.02099 2.10725 5.66053 1.84234C6.30007 1.57743 7.00381 1.50812 7.68274 1.64317C8.36168 1.77822 8.98531 2.11156 9.4748 2.60105C9.96428 3.09053 10.2976 3.71417 10.4327 4.3931C10.5677 5.07204 10.4984 5.77577 10.2335 6.41531C9.9686 7.05485 9.51999 7.60148 8.94442 7.98606C8.36885 8.37065 7.69216 8.57592 6.99993 8.57592C6.07197 8.57493 5.18231 8.20586 4.52615 7.5497C3.86999 6.89353 3.50092 6.00387 3.49993 5.07592Z" fill="#808080"/>
</svg>
