<svg width="108" height="108" viewBox="0 0 108 108" fill="none" xmlns="http://www.w3.org/2000/svg">
<g clip-path="url(#clip0_3236_35737)">
<path fill-rule="evenodd" clip-rule="evenodd" d="M14.2798 70.8345L0.0636995 31.3046C-0.140488 30.7289 0.162629 30.0913 0.738278 29.881C19.429 23.1586 40.4903 16.9064 58.494 9.22448C59.2985 8.71697 59.9299 9.21837 60.2764 10.1777L82.6126 67.7518L88.6779 84.6199C88.8821 85.1955 88.5851 85.8393 88.0094 86.0437L45.2682 101.414L28.6073 107.406C28.0317 107.616 27.3942 107.313 27.1839 106.737L14.2798 70.8345Z" fill="white"/>
<path fill-rule="evenodd" clip-rule="evenodd" d="M26.1318 57.7179L19.0331 16.3185C18.9279 15.7118 19.3365 15.1362 19.9368 15.0309L68.8237 6.64951L80.0196 4.80486C80.6324 4.53866 81.6288 4.8481 81.8638 6.21624L93.9571 66.607L96.9836 84.2737C97.0889 84.8742 96.6803 85.456 96.08 85.5612L51.3148 93.237L33.8618 96.233C33.2615 96.3321 32.6797 95.9235 32.5745 95.323L26.1318 57.7179Z" fill="white"/>
<path fill-rule="evenodd" clip-rule="evenodd" d="M39.8283 45.5108V85.3133C39.8283 85.9509 40.3483 86.477 40.9858 86.477H59.4599H86.8092H90.7392H106.843C107.48 86.477 108 85.9509 108 85.3133V66.613V14.9565V14.418H96.2413C95.1087 14.418 92.7568 14.5789 92.7568 12.0101L92.7319 0.527344H40.9855C40.3481 0.527344 39.8281 1.0473 39.8281 1.68497V11.6201V15.8233V45.5108H39.8283Z" fill="white"/>
<path fill-rule="evenodd" clip-rule="evenodd" d="M20.2089 23.1831C13.5867 25.4117 7.02632 27.6214 0.738278 29.8808C0.162629 30.0913 -0.140488 30.7288 0.0636995 31.3044L14.2798 70.8345L27.1839 106.737C27.3944 107.313 28.0319 107.616 28.6073 107.406L45.2682 101.413L83.2317 87.7644L20.2089 23.1831Z" fill="#B5C4CF"/>
<path fill-rule="evenodd" clip-rule="evenodd" d="M39.8282 11.6204L19.9368 15.031C19.3365 15.1363 18.9279 15.7119 19.0331 16.3186L20.2091 23.1833L26.132 57.718L32.5747 95.3229C32.6799 95.9234 33.2617 96.3318 33.862 96.2329L51.315 93.2369L83.2318 87.7648L90.739 86.4772H86.809L39.8282 11.6204Z" fill="#D7E7EC"/>
<path fill-rule="evenodd" clip-rule="evenodd" d="M108 66.613V14.9565V14.418V14.2385C108 13.9042 107.858 13.8485 107.344 13.3471L94.6506 1.23926C94.0502 0.669727 93.9513 0.527344 93.5984 0.527344H92.7319H40.9855C40.3481 0.527344 39.8281 1.0473 39.8281 1.68497V85.3133C39.8281 85.9509 40.3481 86.477 40.9855 86.477H106.843C107.48 86.477 108 85.9509 108 85.3133V66.613Z" fill="#EDF3F4"/>
<path fill-rule="evenodd" clip-rule="evenodd" d="M39.8282 11.6201L35.168 12.4187V89.5908C35.168 90.2346 35.6879 90.7546 36.3254 90.7546H54.7995H65.7912L83.2318 87.7648L90.739 86.4772H86.8091H81.9754H59.4597H40.9856C40.3482 86.4772 39.8282 85.9511 39.8282 85.3135C39.8282 60.7508 39.8282 36.1823 39.8282 11.6201Z" fill="#B5C4CF"/>
<path fill-rule="evenodd" clip-rule="evenodd" d="M26.1322 57.7178L20.2093 23.1831C18.6064 23.7216 17.0096 24.2602 15.4189 24.7987L16.1555 29.0885L22.0785 63.6232L28.5274 101.228C28.6264 101.828 29.2081 102.237 29.8085 102.138L47.2614 99.1421L55.5424 97.7246L80.4841 88.749L80.1871 88.2847L65.7915 90.7546L51.3154 93.2369L33.8625 96.2329C33.2621 96.332 32.6804 95.9234 32.5751 95.3229L26.1322 57.7178Z" fill="#9AAFB7"/>
<path fill-rule="evenodd" clip-rule="evenodd" d="M108 66.613V14.9565V14.418C108 13.7928 107.796 13.7867 107.344 13.3471L94.6507 1.23926C94.0503 0.669727 93.9514 0.527344 93.5985 0.527344H92.732H79.8525C95.5912 21.5985 96.4886 59.581 84.81 83.2891C84.2715 84.391 83.7083 85.4495 83.1204 86.477H86.809H90.739H106.843C107.48 86.477 108 85.9509 108 85.3133V66.613Z" fill="#D7E7EC"/>
<path fill-rule="evenodd" clip-rule="evenodd" d="M92.7561 12.0099C92.7561 14.5787 95.1079 14.4178 96.2406 14.4178H108V14.2382C108 13.9039 107.857 13.8482 107.344 13.3468L94.6501 1.23901C94.0498 0.669482 93.9509 0.5271 93.598 0.5271H92.7314L92.7561 12.0099Z" fill="white"/>
<path fill-rule="evenodd" clip-rule="evenodd" d="M107.344 13.3471L94.6501 1.23926C94.0498 0.669727 93.9509 0.527344 93.598 0.527344H92.7314L92.7561 12.0099C92.7561 14.5787 95.1079 14.4178 96.2406 14.4178H108V14.2383C108 13.9042 107.857 13.8485 107.344 13.3471Z" fill="#B5C4CF"/>
<path d="M97.5401 25.841H50.9432C50.0431 25.841 49.3135 25.1112 49.3135 24.2107C49.3135 23.3102 50.0431 22.5803 50.9432 22.5803H97.5401C98.4402 22.5803 99.1698 23.3102 99.1698 24.2107C99.1698 25.1112 98.4404 25.841 97.5401 25.841Z" fill="#9AAFB7"/>
<path d="M97.5401 37.4225H50.9432C50.0431 37.4225 49.3135 36.6927 49.3135 35.7922C49.3135 34.8917 50.0431 34.1619 50.9432 34.1619H97.5401C98.4402 34.1619 99.1698 34.8917 99.1698 35.7922C99.1698 36.6927 98.4404 37.4225 97.5401 37.4225Z" fill="#9AAFB7"/>
<path d="M97.5401 49.0046H50.9432C50.0431 49.0046 49.3135 48.2747 49.3135 47.3742C49.3135 46.4737 50.0431 45.7439 50.9432 45.7439H97.5401C98.4402 45.7439 99.1698 46.4737 99.1698 47.3742C99.1698 48.2747 98.4404 49.0046 97.5401 49.0046Z" fill="#9AAFB7"/>
<path d="M97.5401 60.5861H50.9432C50.0431 60.5861 49.3135 59.8563 49.3135 58.9558C49.3135 58.0553 50.0431 57.3254 50.9432 57.3254H97.5401C98.4402 57.3254 99.1698 58.0553 99.1698 58.9558C99.1698 59.8563 98.4404 60.5861 97.5401 60.5861Z" fill="#9AAFB7"/>
<path d="M97.5401 72.1681H50.9432C50.0431 72.1681 49.3135 71.4383 49.3135 70.5378C49.3135 69.6373 50.0431 68.9075 50.9432 68.9075H97.5401C98.4402 68.9075 99.1698 69.6373 99.1698 70.5378C99.1698 71.4383 98.4404 72.1681 97.5401 72.1681Z" fill="#9AAFB7"/>
</g>
<defs>
<clipPath id="clip0_3236_35737">
<rect width="108" height="108" fill="white"/>
</clipPath>
</defs>
</svg>
