<svg width="14" height="18" viewBox="0 0 14 18" fill="none" xmlns="http://www.w3.org/2000/svg">
<path d="M3.25 16.5C3.25 16.6658 3.18415 16.8247 3.06694 16.9419C2.94973 17.0592 2.79076 17.125 2.625 17.125H1.375C1.04348 17.125 0.725537 16.9933 0.491116 16.7589C0.256696 16.5245 0.125 16.2065 0.125 15.875V13.375C0.125 13.2092 0.190848 13.0503 0.308058 12.9331C0.425269 12.8158 0.58424 12.75 0.75 12.75C0.91576 12.75 1.07473 12.8158 1.19194 12.9331C1.30915 13.0503 1.375 13.2092 1.375 13.375V15.875H2.625C2.79076 15.875 2.94973 15.9408 3.06694 16.0581C3.18415 16.1753 3.25 16.3342 3.25 16.5ZM13.875 5.875V9.625C13.875 9.79076 13.8092 9.94973 13.6919 10.0669C13.5747 10.1842 13.4158 10.25 13.25 10.25C13.0842 10.25 12.9253 10.1842 12.8081 10.0669C12.6908 9.94973 12.625 9.79076 12.625 9.625V6.5H8.875C8.70924 6.5 8.55027 6.43415 8.43306 6.31694C8.31585 6.19973 8.25 6.04076 8.25 5.875V2.125H6.375C6.20924 2.125 6.05027 2.05915 5.93306 1.94194C5.81585 1.82473 5.75 1.66576 5.75 1.5C5.75 1.33424 5.81585 1.17527 5.93306 1.05806C6.05027 0.940848 6.20924 0.875 6.375 0.875H8.875C8.9571 0.874936 9.03841 0.891047 9.11428 0.922415C9.19015 0.953782 9.2591 0.999791 9.31719 1.05781L13.6922 5.43281C13.7502 5.4909 13.7962 5.55985 13.8276 5.63572C13.859 5.71159 13.8751 5.7929 13.875 5.875ZM9.5 5.25H11.7414L9.5 3.00859V5.25ZM3.25 0.875H1.375C1.04348 0.875 0.725537 1.0067 0.491116 1.24112C0.256696 1.47554 0.125 1.79348 0.125 2.125V4C0.125 4.16576 0.190848 4.32473 0.308058 4.44194C0.425269 4.55915 0.58424 4.625 0.75 4.625C0.91576 4.625 1.07473 4.55915 1.19194 4.44194C1.30915 4.32473 1.375 4.16576 1.375 4V2.125H3.25C3.41576 2.125 3.57473 2.05915 3.69194 1.94194C3.80915 1.82473 3.875 1.66576 3.875 1.5C3.875 1.33424 3.80915 1.17527 3.69194 1.05806C3.57473 0.940848 3.41576 0.875 3.25 0.875ZM13.25 12.125C13.0842 12.125 12.9253 12.1908 12.8081 12.3081C12.6908 12.4253 12.625 12.5842 12.625 12.75V15.875H12C11.8342 15.875 11.6753 15.9408 11.5581 16.0581C11.4408 16.1753 11.375 16.3342 11.375 16.5C11.375 16.6658 11.4408 16.8247 11.5581 16.9419C11.6753 17.0592 11.8342 17.125 12 17.125H12.625C12.9565 17.125 13.2745 16.9933 13.5089 16.7589C13.7433 16.5245 13.875 16.2065 13.875 15.875V12.75C13.875 12.5842 13.8092 12.4253 13.6919 12.3081C13.5747 12.1908 13.4158 12.125 13.25 12.125ZM0.75 10.875C0.91576 10.875 1.07473 10.8092 1.19194 10.6919C1.30915 10.5747 1.375 10.4158 1.375 10.25V7.125C1.375 6.95924 1.30915 6.80027 1.19194 6.68306C1.07473 6.56585 0.91576 6.5 0.75 6.5C0.58424 6.5 0.425269 6.56585 0.308058 6.68306C0.190848 6.80027 0.125 6.95924 0.125 7.125V10.25C0.125 10.4158 0.190848 10.5747 0.308058 10.6919C0.425269 10.8092 0.58424 10.875 0.75 10.875ZM8.875 15.875H5.75C5.58424 15.875 5.42527 15.9408 5.30806 16.0581C5.19085 16.1753 5.125 16.3342 5.125 16.5C5.125 16.6658 5.19085 16.8247 5.30806 16.9419C5.42527 17.0592 5.58424 17.125 5.75 17.125H8.875C9.04076 17.125 9.19973 17.0592 9.31694 16.9419C9.43415 16.8247 9.5 16.6658 9.5 16.5C9.5 16.3342 9.43415 16.1753 9.31694 16.0581C9.19973 15.9408 9.04076 15.875 8.875 15.875Z" fill="#373737"/>
</svg>
