<svg width="20" height="9" viewBox="0 0 20 9" fill="none" xmlns="http://www.w3.org/2000/svg">
<path d="M11.6884 1.69564L4.68837 8.57064C4.57147 8.68563 4.41407 8.75007 4.25009 8.75007C4.08612 8.75007 3.92871 8.68563 3.81181 8.57064L0.811812 5.62455C0.753282 5.56699 0.706661 5.49847 0.674611 5.4229C0.642562 5.34733 0.625711 5.26618 0.625022 5.1841C0.624333 5.10201 0.639818 5.02059 0.670594 4.94449C0.70137 4.86839 0.746834 4.7991 0.80439 4.74057C0.861946 4.68203 0.930467 4.63541 1.00604 4.60336C1.08161 4.57131 1.16276 4.55446 1.24485 4.55378C1.32693 4.55309 1.40835 4.56857 1.48445 4.59935C1.56055 4.63012 1.62984 4.67559 1.68837 4.73314L4.25009 7.24877L10.8126 0.803456C10.9309 0.687217 11.0905 0.622737 11.2564 0.624202C11.3385 0.624928 11.4197 0.641821 11.4953 0.673918C11.5709 0.706015 11.6394 0.752687 11.697 0.811268C11.7545 0.86985 11.8 0.939195 11.8307 1.01534C11.8615 1.09149 11.8769 1.17295 11.8762 1.25507C11.8755 1.3372 11.8586 1.41837 11.8265 1.49396C11.7944 1.56956 11.7477 1.63809 11.6892 1.69564H11.6884ZM19.1962 0.811268C19.1387 0.752642 19.0701 0.705932 18.9945 0.673807C18.9189 0.641682 18.8378 0.624773 18.7556 0.624048C18.6735 0.623322 18.592 0.638794 18.5159 0.669578C18.4397 0.700362 18.3704 0.745856 18.3118 0.803456L11.7493 7.24877L10.2782 5.80346C10.1599 5.68732 10.0003 5.62294 9.83453 5.62448C9.66875 5.62602 9.51037 5.69335 9.39423 5.81166C9.2781 5.92997 9.21372 6.08957 9.21526 6.25535C9.21679 6.42113 9.28413 6.57951 9.40244 6.69564L11.311 8.57064C11.4279 8.68563 11.5853 8.75007 11.7493 8.75007C11.9133 8.75007 12.0707 8.68563 12.1876 8.57064L19.1876 1.69564C19.2463 1.63816 19.293 1.56968 19.3252 1.49411C19.3574 1.41855 19.3744 1.33737 19.3752 1.25524C19.376 1.1731 19.3606 1.09161 19.3299 1.01543C19.2992 0.939254 19.2537 0.869877 19.1962 0.811268Z" fill="#373737"/>
</svg>
