<svg width="18" height="15" viewBox="0 0 18 15" fill="none" xmlns="http://www.w3.org/2000/svg">
<path d="M11.8469 5.72969L8.09688 3.22969C8.00273 3.16687 7.89329 3.1308 7.78024 3.12533C7.6672 3.11985 7.55479 3.14517 7.45501 3.19859C7.35523 3.25201 7.27183 3.33152 7.21371 3.42863C7.15559 3.52575 7.12493 3.63682 7.125 3.75V8.75C7.12493 8.86318 7.15559 8.97425 7.21371 9.07137C7.27183 9.16848 7.35523 9.24799 7.45501 9.30141C7.55479 9.35483 7.6672 9.38015 7.78024 9.37467C7.89329 9.3692 8.00273 9.33313 8.09688 9.27031L11.8469 6.77031C11.9326 6.71326 12.0029 6.63591 12.0515 6.54513C12.1002 6.45436 12.1256 6.35298 12.1256 6.25C12.1256 6.14702 12.1002 6.04564 12.0515 5.95487C12.0029 5.86409 11.9326 5.78674 11.8469 5.72969ZM8.375 7.58203V4.92188L10.3734 6.25L8.375 7.58203ZM15.875 0.625H2.125C1.79348 0.625 1.47554 0.756696 1.24112 0.991116C1.0067 1.22554 0.875 1.54348 0.875 1.875V10.625C0.875 10.9565 1.0067 11.2745 1.24112 11.5089C1.47554 11.7433 1.79348 11.875 2.125 11.875H15.875C16.2065 11.875 16.5245 11.7433 16.7589 11.5089C16.9933 11.2745 17.125 10.9565 17.125 10.625V1.875C17.125 1.54348 16.9933 1.22554 16.7589 0.991116C16.5245 0.756696 16.2065 0.625 15.875 0.625ZM15.875 10.625H2.125V1.875H15.875V10.625ZM17.125 13.75C17.125 13.9158 17.0592 14.0747 16.9419 14.1919C16.8247 14.3092 16.6658 14.375 16.5 14.375H1.5C1.33424 14.375 1.17527 14.3092 1.05806 14.1919C0.940848 14.0747 0.875 13.9158 0.875 13.75C0.875 13.5842 0.940848 13.4253 1.05806 13.3081C1.17527 13.1908 1.33424 13.125 1.5 13.125H16.5C16.6658 13.125 16.8247 13.1908 16.9419 13.3081C17.0592 13.4253 17.125 13.5842 17.125 13.75Z" fill="#5B5B5B"/>
</svg>
