<svg width="1440" height="1024" viewBox="0 0 1440 1024" fill="none" xmlns="http://www.w3.org/2000/svg">
<g clip-path="url(#clip0_4436_9895)">
<rect width="1440" height="1024" fill="#F5F5F4"/>
<path d="M200 -5.10254L0 1094.9" stroke="black" stroke-opacity="0.16" stroke-width="0.67"/>
<path d="M200 -5.10254L0 1094.9" stroke="#EF5A3C" stroke-opacity="0.11" stroke-dasharray="0.01 1"/>
<path d="M200 -5.10254L0 1094.9" stroke="#EF5A3C" stroke-opacity="0.224" stroke-dasharray="0.01 1"/>
<path d="M200 -5.10254L0 1094.9" stroke="#EF5A3C" stroke-opacity="0.333" stroke-dasharray="0.01 1"/>
<path d="M200 -5.10254L0 1094.9" stroke="#EF5A3C" stroke-opacity="0.443" stroke-dasharray="0.01 1"/>
<path d="M200 -5.10254L0 1094.9" stroke="#EF5A3C" stroke-opacity="0.557" stroke-dasharray="0.01 1"/>
<path d="M200 -5.10254L0 1094.9" stroke="#EF5A3C" stroke-opacity="0.667" stroke-dasharray="0.01 1"/>
<path d="M200 -5.10254L0 1094.9" stroke="#EF5A3C" stroke-opacity="0.776" stroke-dasharray="0.01 1"/>
<path d="M200 -5.10254L0 1094.9" stroke="#EF5A3C" stroke-opacity="0.89" stroke-dasharray="0.01 1"/>
<path d="M700 -5.10254L0 1094.9" stroke="black" stroke-opacity="0.16" stroke-width="0.67" stroke-dasharray="5 5"/>
<path d="M2000 -5.10254L0 1094.9" stroke="black" stroke-opacity="0.16" stroke-width="0.67"/>
<path d="M6000 -5.10254L0 1094.9" stroke="black" stroke-opacity="0.16" stroke-width="0.67" stroke-dasharray="5 5"/>
<path d="M0 -5.10254L2000 594.897" stroke="black" stroke-opacity="0.16" stroke-width="0.67" stroke-dasharray="5 5"/>
<path d="M300 -5.10254L2000 464.897" stroke="black" stroke-opacity="0.16" stroke-width="0.67" stroke-dasharray="5 5"/>
<path d="M20 -5.10254V1094.9" stroke="black" stroke-opacity="0.06" stroke-width="0.67"/>
<path d="M40 -5.10254V1094.9" stroke="black" stroke-opacity="0.06" stroke-width="0.67"/>
<path d="M60 -5.10254V1094.9" stroke="black" stroke-opacity="0.06" stroke-width="0.67"/>
<path d="M80 -5.10254V1094.9" stroke="black" stroke-opacity="0.06" stroke-width="0.67"/>
<path d="M100 -5.10254V1094.9" stroke="black" stroke-opacity="0.06" stroke-width="0.67"/>
<path d="M120 -5.10254V1094.9" stroke="black" stroke-opacity="0.06" stroke-width="0.67"/>
<path d="M140 -5.10254V1094.9" stroke="black" stroke-opacity="0.06" stroke-width="0.67"/>
<path d="M160 -5.10254V1094.9" stroke="black" stroke-opacity="0.06" stroke-width="0.67"/>
<path d="M180 -5.10254V1094.9" stroke="black" stroke-opacity="0.06" stroke-width="0.67"/>
<path d="M200 -5.10254V1094.9" stroke="black" stroke-opacity="0.06" stroke-width="0.67"/>
<path d="M220 -5.10254V1094.9" stroke="black" stroke-opacity="0.06" stroke-width="0.67"/>
<path d="M240 -5.10254V1094.9" stroke="black" stroke-opacity="0.06" stroke-width="0.67"/>
<path d="M260 -5.10254V1094.9" stroke="black" stroke-opacity="0.06" stroke-width="0.67"/>
<path d="M280 -5.10254V1094.9" stroke="black" stroke-opacity="0.06" stroke-width="0.67"/>
<path d="M300 -5.10254V1094.9" stroke="black" stroke-opacity="0.06" stroke-width="0.67"/>
<path d="M320 -5.10254V1094.9" stroke="black" stroke-opacity="0.06" stroke-width="0.67"/>
<path d="M340 -5.10254V1094.9" stroke="black" stroke-opacity="0.06" stroke-width="0.67"/>
<path d="M360 -5.10254V1094.9" stroke="black" stroke-opacity="0.06" stroke-width="0.67"/>
<path d="M380 -5.10254V1094.9" stroke="black" stroke-opacity="0.06" stroke-width="0.67"/>
<path d="M400 -5.10254V1094.9" stroke="black" stroke-opacity="0.06" stroke-width="0.67"/>
<path d="M420 -5.10254V1094.9" stroke="black" stroke-opacity="0.06" stroke-width="0.67"/>
<path d="M440 -5.10254V1094.9" stroke="black" stroke-opacity="0.06" stroke-width="0.67"/>
<path d="M460 -5.10254V1094.9" stroke="black" stroke-opacity="0.06" stroke-width="0.67"/>
<path d="M480 -5.10254V1094.9" stroke="black" stroke-opacity="0.06" stroke-width="0.67"/>
<path d="M500 -5.10254V1094.9" stroke="black" stroke-opacity="0.06" stroke-width="0.67"/>
<path d="M520 -5.10254V1094.9" stroke="black" stroke-opacity="0.06" stroke-width="0.67"/>
<path d="M540 -5.10254V1094.9" stroke="black" stroke-opacity="0.06" stroke-width="0.67"/>
<path d="M560 -5.10254V1094.9" stroke="black" stroke-opacity="0.06" stroke-width="0.67"/>
<path d="M580 -5.10254V1094.9" stroke="black" stroke-opacity="0.06" stroke-width="0.67"/>
<path d="M600 -5.10254V1094.9" stroke="black" stroke-opacity="0.06" stroke-width="0.67"/>
<path d="M620 -5.10254V1094.9" stroke="black" stroke-opacity="0.06" stroke-width="0.67"/>
<path d="M640 -5.10254V1094.9" stroke="black" stroke-opacity="0.06" stroke-width="0.67"/>
<path d="M660 -5.10254V1094.9" stroke="black" stroke-opacity="0.06" stroke-width="0.67"/>
<path d="M680 -5.10254V1094.9" stroke="black" stroke-opacity="0.06" stroke-width="0.67"/>
<path d="M700 -5.10254V1094.9" stroke="black" stroke-opacity="0.06" stroke-width="0.67"/>
<path d="M720 -5.10254V1094.9" stroke="black" stroke-opacity="0.06" stroke-width="0.67"/>
<path d="M740 -5.10254V1094.9" stroke="black" stroke-opacity="0.06" stroke-width="0.67"/>
<path d="M760 -5.10254V1094.9" stroke="black" stroke-opacity="0.06" stroke-width="0.67"/>
<path d="M780 -5.10254V1094.9" stroke="black" stroke-opacity="0.06" stroke-width="0.67"/>
<path d="M800 -5.10254V1094.9" stroke="black" stroke-opacity="0.06" stroke-width="0.67"/>
<path d="M820 -5.10254V1094.9" stroke="black" stroke-opacity="0.06" stroke-width="0.67"/>
<path d="M840 -5.10254V1094.9" stroke="black" stroke-opacity="0.06" stroke-width="0.67"/>
<path d="M860 -5.10254V1094.9" stroke="black" stroke-opacity="0.06" stroke-width="0.67"/>
<path d="M880 -5.10254V1094.9" stroke="black" stroke-opacity="0.06" stroke-width="0.67"/>
<path d="M900 -5.10254V1094.9" stroke="black" stroke-opacity="0.06" stroke-width="0.67"/>
<path d="M920 -5.10254V1094.9" stroke="black" stroke-opacity="0.06" stroke-width="0.67"/>
<path d="M940 -5.10254V1094.9" stroke="black" stroke-opacity="0.06" stroke-width="0.67"/>
<path d="M960 -5.10254V1094.9" stroke="black" stroke-opacity="0.06" stroke-width="0.67"/>
<path d="M980 -5.10254V1094.9" stroke="black" stroke-opacity="0.06" stroke-width="0.67"/>
<path d="M1000 -5.10254V1094.9" stroke="black" stroke-opacity="0.06" stroke-width="0.67"/>
<path d="M1020 -5.10254V1094.9" stroke="black" stroke-opacity="0.06" stroke-width="0.67"/>
<path d="M1040 -5.10254V1094.9" stroke="black" stroke-opacity="0.06" stroke-width="0.67"/>
<path d="M1060 -5.10254V1094.9" stroke="black" stroke-opacity="0.06" stroke-width="0.67"/>
<path d="M1080 -5.10254V1094.9" stroke="black" stroke-opacity="0.06" stroke-width="0.67"/>
<path d="M1100 -5.10254V1094.9" stroke="black" stroke-opacity="0.06" stroke-width="0.67"/>
<path d="M1120 -5.10254V1094.9" stroke="black" stroke-opacity="0.06" stroke-width="0.67"/>
<path d="M1140 -5.10254V1094.9" stroke="black" stroke-opacity="0.06" stroke-width="0.67"/>
<path d="M1160 -5.10254V1094.9" stroke="black" stroke-opacity="0.06" stroke-width="0.67"/>
<path d="M1180 -5.10254V1094.9" stroke="black" stroke-opacity="0.06" stroke-width="0.67"/>
<path d="M1200 -5.10254V1094.9" stroke="black" stroke-opacity="0.06" stroke-width="0.67"/>
<path d="M1220 -5.10254V1094.9" stroke="black" stroke-opacity="0.06" stroke-width="0.67"/>
<path d="M1240 -5.10254V1094.9" stroke="black" stroke-opacity="0.06" stroke-width="0.67"/>
<path d="M1260 -5.10254V1094.9" stroke="black" stroke-opacity="0.06" stroke-width="0.67"/>
<path d="M1280 -5.10254V1094.9" stroke="black" stroke-opacity="0.06" stroke-width="0.67"/>
<path d="M1300 -5.10254V1094.9" stroke="black" stroke-opacity="0.06" stroke-width="0.67"/>
<path d="M1320 -5.10254V1094.9" stroke="black" stroke-opacity="0.06" stroke-width="0.67"/>
<path d="M1340 -5.10254V1094.9" stroke="black" stroke-opacity="0.06" stroke-width="0.67"/>
<path d="M1360 -5.10254V1094.9" stroke="black" stroke-opacity="0.06" stroke-width="0.67"/>
<path d="M1380 -5.10254V1094.9" stroke="black" stroke-opacity="0.06" stroke-width="0.67"/>
<path d="M1400 -5.10254V1094.9" stroke="black" stroke-opacity="0.06" stroke-width="0.67"/>
<path d="M1420 -5.10254V1094.9" stroke="black" stroke-opacity="0.06" stroke-width="0.67"/>
<path d="M1440 -5.10254V1094.9" stroke="black" stroke-opacity="0.06" stroke-width="0.67"/>
<path d="M1420 -5.10254V1094.9" stroke="#CF74A2" stroke-opacity="0.11" stroke-dasharray="0.01 1"/>
<path d="M1420 -5.10254V1094.9" stroke="#CF74A2" stroke-opacity="0.224" stroke-dasharray="0.01 1"/>
<path d="M1420 -5.10254V1094.9" stroke="#CF74A2" stroke-opacity="0.333" stroke-dasharray="0.01 1"/>
<path d="M1420 -5.10254V1094.9" stroke="#CF74A2" stroke-opacity="0.443" stroke-dasharray="0.01 1"/>
<path d="M1420 -5.10254V1094.9" stroke="#CF74A2" stroke-opacity="0.557" stroke-dasharray="0.01 1"/>
<path d="M1420 -5.10254V1094.9" stroke="#CF74A2" stroke-opacity="0.667" stroke-dasharray="0.01 1"/>
<path d="M1420 -5.10254V1094.9" stroke="#CF74A2" stroke-opacity="0.776" stroke-dasharray="0.01 1"/>
<path d="M1420 -5.10254V1094.9" stroke="#CF74A2" stroke-opacity="0.89" stroke-dasharray="0.01 1"/>
<path d="M0 14.8975H2000" stroke="black" stroke-opacity="0.06" stroke-width="0.67"/>
<path d="M0 34.8975H2000" stroke="black" stroke-opacity="0.06" stroke-width="0.67"/>
<path d="M0 54.8975H2000" stroke="black" stroke-opacity="0.06" stroke-width="0.67"/>
<path d="M0 74.8975H2000" stroke="black" stroke-opacity="0.06" stroke-width="0.67"/>
<path d="M0 94.8975H2000" stroke="black" stroke-opacity="0.06" stroke-width="0.67"/>
<path d="M0 114.897H2000" stroke="black" stroke-opacity="0.06" stroke-width="0.67"/>
<path d="M0 134.897H2000" stroke="black" stroke-opacity="0.06" stroke-width="0.67"/>
<path d="M0 154.897H2000" stroke="black" stroke-opacity="0.06" stroke-width="0.67"/>
<path d="M0 174.897H2000" stroke="black" stroke-opacity="0.06" stroke-width="0.67"/>
<path d="M0 194.897H2000" stroke="black" stroke-opacity="0.06" stroke-width="0.67"/>
<path d="M0 214.897H2000" stroke="black" stroke-opacity="0.06" stroke-width="0.67"/>
<path d="M0 234.897H2000" stroke="black" stroke-opacity="0.06" stroke-width="0.67"/>
<path d="M0 254.897H2000" stroke="black" stroke-opacity="0.06" stroke-width="0.67"/>
<path d="M0 274.897H2000" stroke="black" stroke-opacity="0.06" stroke-width="0.67"/>
<path d="M0 294.897H2000" stroke="black" stroke-opacity="0.06" stroke-width="0.67"/>
<path d="M0 314.897H2000" stroke="black" stroke-opacity="0.06" stroke-width="0.67"/>
<path d="M0 334.897H2000" stroke="black" stroke-opacity="0.06" stroke-width="0.67"/>
<path d="M0 354.897H2000" stroke="black" stroke-opacity="0.06" stroke-width="0.67"/>
<path d="M0 374.897H2000" stroke="black" stroke-opacity="0.06" stroke-width="0.67"/>
<path d="M0 394.897H2000" stroke="black" stroke-opacity="0.06" stroke-width="0.67"/>
<path d="M0 414.897H2000" stroke="black" stroke-opacity="0.06" stroke-width="0.67"/>
<path d="M0 434.897H2000" stroke="black" stroke-opacity="0.06" stroke-width="0.67"/>
<path d="M0 454.897H2000" stroke="black" stroke-opacity="0.06" stroke-width="0.67"/>
<path d="M0 474.897H2000" stroke="black" stroke-opacity="0.06" stroke-width="0.67"/>
<path d="M0 494.897H2000" stroke="black" stroke-opacity="0.06" stroke-width="0.67"/>
<path d="M0 514.897H2000" stroke="black" stroke-opacity="0.06" stroke-width="0.67"/>
<path d="M0 534.897H2000" stroke="black" stroke-opacity="0.06" stroke-width="0.67"/>
<path d="M0 554.897H2000" stroke="black" stroke-opacity="0.06" stroke-width="0.67"/>
<path d="M0 574.897H2000" stroke="black" stroke-opacity="0.06" stroke-width="0.67"/>
<path d="M0 594.897H2000" stroke="black" stroke-opacity="0.06" stroke-width="0.67"/>
<path d="M0 614.897H2000" stroke="black" stroke-opacity="0.06" stroke-width="0.67"/>
<path d="M0 634.897H2000" stroke="black" stroke-opacity="0.06" stroke-width="0.67"/>
<path d="M0 654.897H2000" stroke="black" stroke-opacity="0.06" stroke-width="0.67"/>
<path d="M0 674.897H2000" stroke="black" stroke-opacity="0.06" stroke-width="0.67"/>
<path d="M0 694.897H2000" stroke="black" stroke-opacity="0.06" stroke-width="0.67"/>
<path d="M0 714.897H2000" stroke="black" stroke-opacity="0.06" stroke-width="0.67"/>
<path d="M0 734.897H2000" stroke="black" stroke-opacity="0.06" stroke-width="0.67"/>
<path d="M0 754.897H2000" stroke="black" stroke-opacity="0.06" stroke-width="0.67"/>
<path d="M0 774.897H2000" stroke="black" stroke-opacity="0.06" stroke-width="0.67"/>
<path d="M0 794.897H2000" stroke="black" stroke-opacity="0.06" stroke-width="0.67"/>
<path d="M0 814.897H2000" stroke="black" stroke-opacity="0.06" stroke-width="0.67"/>
<path d="M0 834.897H2000" stroke="black" stroke-opacity="0.06" stroke-width="0.67"/>
<path d="M0 854.897H2000" stroke="black" stroke-opacity="0.06" stroke-width="0.67"/>
<path d="M0 874.897H2000" stroke="black" stroke-opacity="0.06" stroke-width="0.67"/>
<path d="M0 894.897H2000" stroke="black" stroke-opacity="0.06" stroke-width="0.67"/>
<path d="M0 914.897H2000" stroke="black" stroke-opacity="0.06" stroke-width="0.67"/>
<path d="M0 934.897H2000" stroke="black" stroke-opacity="0.06" stroke-width="0.67"/>
<path d="M0 954.897H2000" stroke="black" stroke-opacity="0.06" stroke-width="0.67"/>
<path d="M0 974.897H2000" stroke="black" stroke-opacity="0.06" stroke-width="0.67"/>
<path d="M0 994.897H2000" stroke="black" stroke-opacity="0.06" stroke-width="0.67"/>
<path d="M0 1014.9H2000" stroke="black" stroke-opacity="0.06" stroke-width="0.67"/>
<path d="M0 94.8975H2000" stroke="#0CA063" stroke-dasharray="0.01 1"/>
<path d="M0 94.8975H2000" stroke="#0CA063" stroke-opacity="0.89" stroke-dasharray="0.01 1"/>
<path d="M0 94.8975H2000" stroke="#0CA063" stroke-opacity="0.776" stroke-dasharray="0.01 1"/>
<path d="M0 94.8975H2000" stroke="#0CA063" stroke-opacity="0.667" stroke-dasharray="0.01 1"/>
<path d="M0 94.8975H2000" stroke="#0CA063" stroke-opacity="0.557" stroke-dasharray="0.01 1"/>
<path d="M0 94.8975H2000" stroke="#0CA063" stroke-opacity="0.443" stroke-dasharray="0.01 1"/>
<path d="M0 94.8975H2000" stroke="#0CA063" stroke-opacity="0.333" stroke-dasharray="0.01 1"/>
<path d="M0 94.8975H2000" stroke="#0CA063" stroke-opacity="0.224" stroke-dasharray="0.01 1"/>
<path d="M0 94.8975H2000" stroke="#0CA063" stroke-opacity="0.11" stroke-dasharray="0.01 1"/>
<path d="M0 394.897H2000" stroke="#2797CF" stroke-opacity="0.11" stroke-dasharray="0.01 1"/>
<path d="M0 394.897H2000" stroke="#2797CF" stroke-opacity="0.224" stroke-dasharray="0.01 1"/>
<path d="M0 394.897H2000" stroke="#2797CF" stroke-opacity="0.333" stroke-dasharray="0.01 1"/>
<path d="M0 394.897H2000" stroke="#2797CF" stroke-opacity="0.443" stroke-dasharray="0.01 1"/>
<path d="M0 394.897H2000" stroke="#2797CF" stroke-opacity="0.557" stroke-dasharray="0.01 1"/>
<path d="M0 394.897H2000" stroke="#2797CF" stroke-opacity="0.667" stroke-dasharray="0.01 1"/>
<path d="M0 394.897H2000" stroke="#2797CF" stroke-opacity="0.776" stroke-dasharray="0.01 1"/>
<path d="M0 394.897H2000" stroke="#2797CF" stroke-opacity="0.89" stroke-dasharray="0.01 1"/>
<rect width="1440" height="1023" fill="url(#paint0_linear_4436_9895)"/>
</g>
<defs>
<linearGradient id="paint0_linear_4436_9895" x1="720" y1="174.829" x2="720" y2="1023" gradientUnits="userSpaceOnUse">
<stop stop-color="white" stop-opacity="0.4"/>
<stop offset="0.548481" stop-color="white"/>
</linearGradient>
<clipPath id="clip0_4436_9895">
<rect width="1440" height="1024" fill="white"/>
</clipPath>
</defs>
</svg>
