<svg width="21" height="20" viewBox="0 0 21 20" fill="none" xmlns="http://www.w3.org/2000/svg">
<g clip-path="url(#clip0_4321_12508)">
<path d="M11.8125 12.3188C12.7922 11.7085 13.5466 10.7958 13.9614 9.71866C14.3762 8.64153 14.429 7.45858 14.1116 6.3488C13.7943 5.23903 13.1241 4.2628 12.2026 3.56781C11.281 2.87282 10.1581 2.49689 9.00386 2.49689C7.8496 2.49689 6.72674 2.87282 5.80517 3.56781C4.88359 4.2628 4.21343 5.23903 3.89609 6.3488C3.57874 7.45858 3.63148 8.64153 4.04631 9.71866C4.46114 10.7958 5.2155 11.7085 6.19527 12.3188C4.58199 12.8469 3.13042 13.8336 1.96324 15.2227C1.90855 15.2852 1.86688 15.358 1.84066 15.4368C1.81444 15.5157 1.8042 15.5989 1.81054 15.6818C1.81687 15.7646 1.83966 15.8453 1.87757 15.9193C1.91547 15.9932 1.96774 16.0588 2.0313 16.1123C2.09486 16.1658 2.16845 16.2061 2.24777 16.2308C2.32708 16.2555 2.41053 16.2642 2.49322 16.2563C2.57592 16.2483 2.65621 16.224 2.7294 16.1847C2.80259 16.1454 2.86721 16.0919 2.91949 16.0274C4.48824 14.1555 6.64917 13.125 8.99995 13.125C11.3507 13.125 13.5117 14.1555 15.0835 16.0274C15.1903 16.1544 15.3431 16.2338 15.5083 16.2481C15.6736 16.2625 15.8378 16.2106 15.9648 16.1039C16.0918 15.9972 16.1712 15.8444 16.1856 15.6791C16.2 15.5139 16.1481 15.3497 16.0414 15.2227C14.8734 13.8336 13.4218 12.8469 11.8125 12.3188ZM4.93745 7.81251C4.93745 7.00903 5.17572 6.22358 5.62211 5.55551C6.0685 4.88743 6.70298 4.36673 7.4453 4.05925C8.18763 3.75177 9.00446 3.67132 9.79251 3.82807C10.5806 3.98482 11.3044 4.37174 11.8726 4.93989C12.4407 5.50804 12.8276 6.23191 12.9844 7.01996C13.1411 7.808 13.0607 8.62484 12.7532 9.36716C12.4457 10.1095 11.925 10.744 11.257 11.1904C10.5889 11.6368 9.80344 11.875 8.99995 11.875C7.92289 11.8738 6.8903 11.4454 6.1287 10.6838C5.36711 9.92217 4.9387 8.88957 4.93745 7.81251ZM20.2695 11.1774L19.9054 10.9672C19.9481 10.7411 19.9481 10.5089 19.9054 10.2828L20.2695 10.0727C20.3406 10.0316 20.4029 9.97699 20.4529 9.91187C20.5029 9.84674 20.5395 9.77242 20.5608 9.69312C20.582 9.61383 20.5875 9.53113 20.5768 9.44974C20.5661 9.36835 20.5394 9.28986 20.4984 9.21876C20.4574 9.14766 20.4027 9.08534 20.3376 9.03536C20.2725 8.98538 20.1981 8.94871 20.1188 8.92746C20.0396 8.9062 19.9569 8.90077 19.8755 8.91148C19.7941 8.92218 19.7156 8.94882 19.6445 8.98986L19.2796 9.20079C19.105 9.05099 18.9043 8.93472 18.6875 8.85782V8.43751C18.6875 8.27175 18.6216 8.11278 18.5044 7.99557C18.3872 7.87836 18.2282 7.81251 18.0625 7.81251C17.8967 7.81251 17.7377 7.87836 17.6205 7.99557C17.5033 8.11278 17.4375 8.27175 17.4375 8.43751V8.85782C17.2206 8.93472 17.0199 9.05099 16.8453 9.20079L16.4804 8.98986C16.4093 8.94882 16.3308 8.92218 16.2494 8.91148C16.1681 8.90077 16.0854 8.9062 16.0061 8.92746C15.9268 8.94871 15.8524 8.98538 15.7873 9.03536C15.7222 9.08534 15.6676 9.14766 15.6265 9.21876C15.5855 9.28986 15.5588 9.36835 15.5481 9.44974C15.5374 9.53113 15.5429 9.61383 15.5641 9.69312C15.5854 9.77242 15.622 9.84674 15.672 9.91187C15.722 9.97699 15.7843 10.0316 15.8554 10.0727L16.2195 10.2828C16.1768 10.5089 16.1768 10.7411 16.2195 10.9672L15.8554 11.1774C15.7843 11.2184 15.722 11.273 15.672 11.3382C15.622 11.4033 15.5854 11.4776 15.5641 11.5569C15.5429 11.6362 15.5374 11.7189 15.5481 11.8003C15.5588 11.8817 15.5855 11.9602 15.6265 12.0313C15.6676 12.1024 15.7222 12.1647 15.7873 12.2147C15.8524 12.2646 15.9268 12.3013 16.0061 12.3226C16.0854 12.3438 16.1681 12.3492 16.2494 12.3385C16.3308 12.3278 16.4093 12.3012 16.4804 12.2602L16.8453 12.0492C17.0199 12.199 17.2206 12.3153 17.4375 12.3922V12.8125C17.4375 12.9783 17.5033 13.1372 17.6205 13.2545C17.7377 13.3717 17.8967 13.4375 18.0625 13.4375C18.2282 13.4375 18.3872 13.3717 18.5044 13.2545C18.6216 13.1372 18.6875 12.9783 18.6875 12.8125V12.3922C18.9043 12.3153 19.105 12.199 19.2796 12.0492L19.6445 12.2602C19.7394 12.3153 19.8473 12.3441 19.957 12.3438C20.0946 12.3438 20.2284 12.2984 20.3376 12.2147C20.4468 12.1309 20.5253 12.0134 20.5609 11.8805C20.5966 11.7476 20.5873 11.6066 20.5346 11.4794C20.4819 11.3523 20.3887 11.2461 20.2695 11.1774ZM17.4375 10.625C17.4375 10.5014 17.4741 10.3806 17.5428 10.2778C17.6115 10.175 17.7091 10.0949 17.8233 10.0476C17.9375 10.0003 18.0631 9.98791 18.1844 10.012C18.3056 10.0361 18.417 10.0957 18.5044 10.1831C18.5918 10.2705 18.6513 10.3818 18.6754 10.5031C18.6996 10.6243 18.6872 10.75 18.6399 10.8642C18.5926 10.9784 18.5125 11.076 18.4097 11.1447C18.3069 11.2134 18.1861 11.25 18.0625 11.25C17.8967 11.25 17.7377 11.1842 17.6205 11.067C17.5033 10.9497 17.4375 10.7908 17.4375 10.625Z" fill="#808080"/>
</g>
<defs>
<clipPath id="clip0_4321_12508">
<rect width="20" height="20" fill="white" transform="translate(0.5625)"/>
</clipPath>
</defs>
</svg>
