<svg width="20" height="20" viewBox="0 0 20 20" fill="none" xmlns="http://www.w3.org/2000/svg">
<path d="M16.8586 9.23201C16.835 9.13184 16.7869 9.03907 16.7188 8.96192C16.6506 8.88478 16.5645 8.82567 16.468 8.78983L11.9672 7.10155L13.1125 1.37264C13.1385 1.23953 13.1204 1.1016 13.0611 0.979655C13.0017 0.857713 12.9043 0.758378 12.7836 0.696639C12.6629 0.634901 12.5253 0.614109 12.3917 0.637402C12.2581 0.660694 12.1357 0.726807 12.043 0.825763L3.29299 10.2008C3.22193 10.2756 3.17052 10.367 3.14336 10.4666C3.1162 10.5662 3.11413 10.6709 3.13734 10.7715C3.16056 10.8721 3.20833 10.9654 3.27639 11.043C3.34445 11.1207 3.43068 11.1802 3.52737 11.2164L8.02971 12.9047L6.88753 18.6273C6.86159 18.7604 6.87965 18.8984 6.93899 19.0203C6.99832 19.1423 7.09571 19.2416 7.21645 19.3033C7.3372 19.3651 7.47474 19.3859 7.60834 19.3626C7.74194 19.3393 7.86433 19.2732 7.95706 19.1742L16.7071 9.7992C16.7768 9.7243 16.8272 9.63341 16.8536 9.53451C16.88 9.43561 16.8817 9.33174 16.8586 9.23201ZM8.54456 16.7187L9.36253 12.6265C9.3918 12.4814 9.3686 12.3306 9.29707 12.201C9.22553 12.0714 9.1103 11.9713 8.9719 11.9187L4.84378 10.368L11.4547 3.28514L10.6375 7.37733C10.6083 7.52246 10.6314 7.67327 10.703 7.8029C10.7745 7.93252 10.8898 8.03254 11.0282 8.08514L15.1532 9.63201L8.54456 16.7187Z" fill="#808080"/>
</svg>
