<svg width="20" height="20" viewBox="0 0 20 20" fill="none" xmlns="http://www.w3.org/2000/svg">
<path d="M7.34375 1.875C5.59609 1.875 4.375 3.41719 4.375 5.625C4.375 7.83281 5.59609 9.375 7.34375 9.375C9.09141 9.375 10.3125 7.83281 10.3125 5.625C10.3125 3.41719 9.09141 1.875 7.34375 1.875ZM7.34375 8.125C5.98672 8.125 5.625 6.55391 5.625 5.625C5.625 4.69609 5.98672 3.125 7.34375 3.125C8.70078 3.125 9.0625 4.69609 9.0625 5.625C9.0625 6.55391 8.70078 8.125 7.34375 8.125ZM12.9688 10.625C11.2211 10.625 10 12.1672 10 14.375C10 16.5828 11.2211 18.125 12.9688 18.125C14.7164 18.125 15.9375 16.5828 15.9375 14.375C15.9375 12.1672 14.7164 10.625 12.9688 10.625ZM12.9688 16.875C11.6117 16.875 11.25 15.3039 11.25 14.375C11.25 13.4461 11.6117 11.875 12.9688 11.875C14.3258 11.875 14.6875 13.4461 14.6875 14.375C14.6875 15.3039 14.3258 16.875 12.9688 16.875ZM11.3281 3.84531C11.2883 3.77355 11.2629 3.69464 11.2535 3.61308C11.2442 3.53152 11.251 3.44891 11.2735 3.36998C11.2961 3.29105 11.334 3.21733 11.385 3.15304C11.4361 3.08876 11.4993 3.03516 11.5711 2.99531L13.4461 1.95391C13.5412 1.90097 13.6485 1.8738 13.7574 1.87509C13.8663 1.87638 13.9729 1.90608 14.0667 1.96125C14.1606 2.01643 14.2384 2.09516 14.2925 2.18966C14.3465 2.28415 14.375 2.39113 14.375 2.5V8.75C14.375 8.91576 14.3092 9.07473 14.1919 9.19194C14.0747 9.30915 13.9158 9.375 13.75 9.375C13.5842 9.375 13.4253 9.30915 13.3081 9.19194C13.1908 9.07473 13.125 8.91576 13.125 8.75V3.5625L12.1781 4.08828C12.1064 4.12815 12.0274 4.1535 11.9459 4.16287C11.8643 4.17224 11.7817 4.16545 11.7028 4.14288C11.6239 4.12032 11.5501 4.08243 11.4859 4.03137C11.4216 3.98031 11.368 3.91709 11.3281 3.84531ZM8.125 11.25V17.5C8.125 17.6658 8.05915 17.8247 7.94194 17.9419C7.82473 18.0592 7.66576 18.125 7.5 18.125C7.33424 18.125 7.17527 18.0592 7.05806 17.9419C6.94085 17.8247 6.875 17.6658 6.875 17.5V12.3125L5.92812 12.8383C5.78308 12.9187 5.61205 12.9382 5.45264 12.8924C5.29324 12.8467 5.15852 12.7396 5.07812 12.5945C4.99773 12.4495 4.97825 12.2785 5.02396 12.119C5.06967 11.9596 5.17683 11.8249 5.32188 11.7445L7.19688 10.7031C7.29204 10.6503 7.39934 10.6233 7.50816 10.6247C7.61697 10.6262 7.72353 10.656 7.81728 10.7112C7.91104 10.7665 7.98875 10.8452 8.04272 10.9397C8.09669 11.0342 8.12505 11.1412 8.125 11.25Z" fill="#808080"/>
</svg>
