<svg width="20" height="20" viewBox="0 0 20 20" fill="none" xmlns="http://www.w3.org/2000/svg">
<path d="M15.7181 17.5C16.1165 16.5985 16.2954 15.6154 16.2399 14.6314C16.1845 13.6474 15.8963 12.6906 15.3992 11.8396C14.902 10.9886 14.21 10.2677 13.3801 9.73612C12.5502 9.20457 11.6059 8.87753 10.625 8.78187V6.25H12.5C13.6599 6.24868 14.7719 5.78732 15.5921 4.96713C16.4123 4.14695 16.8737 3.03492 16.875 1.875C16.875 1.70924 16.8092 1.55027 16.6919 1.43306C16.5747 1.31585 16.4158 1.25 16.25 1.25H13.75C12.854 1.25169 11.98 1.52827 11.2462 2.04239C10.5123 2.55652 9.95388 3.28343 9.64625 4.125C9.23721 3.61796 8.71991 3.20886 8.13225 2.92769C7.54459 2.64651 6.90146 2.50038 6.25 2.5H3.75C3.58424 2.5 3.42527 2.56585 3.30806 2.68306C3.19085 2.80027 3.125 2.95924 3.125 3.125C3.12632 4.28492 3.58768 5.39695 4.40787 6.21713C5.22805 7.03732 6.34008 7.49868 7.5 7.5H9.375V8.78187C8.39408 8.87753 7.44985 9.20457 6.6199 9.73612C5.78995 10.2677 5.09797 10.9886 4.60082 11.8396C4.10367 12.6906 3.81553 13.6474 3.76008 14.6314C3.70464 15.6154 3.88347 16.5985 4.28187 17.5H1.25V18.75H18.75V17.5H15.7181ZM13.75 2.5H15.5625C15.4174 3.20537 15.0336 3.83916 14.4758 4.29455C13.9179 4.74994 13.2201 4.99909 12.5 5H10.6875C10.8326 4.29463 11.2164 3.66084 11.7742 3.20545C12.3321 2.75006 13.0299 2.50091 13.75 2.5ZM7.5 6.25C6.77987 6.24909 6.08207 5.99994 5.52422 5.54455C4.96636 5.08916 4.58256 4.45537 4.4375 3.75H6.25C6.97013 3.75091 7.66793 4.00006 8.22578 4.45545C8.78364 4.91084 9.16744 5.54463 9.3125 6.25H7.5ZM5 15C4.99618 14.2308 5.16987 13.4711 5.50758 12.78C5.84528 12.0889 6.33788 11.485 6.94705 11.0154C7.55623 10.5457 8.26555 10.2229 9.01983 10.0722C9.7741 9.92138 10.553 9.94666 11.2959 10.146C12.0388 10.3454 12.7257 10.7135 13.3032 11.2217C13.8806 11.7298 14.333 12.3644 14.6252 13.0759C14.9174 13.7875 15.0414 14.5568 14.9877 15.3242C14.9341 16.0915 14.704 16.8361 14.3156 17.5H11.3875C11.6319 17.2321 11.793 16.8988 11.851 16.5408C11.9091 16.1829 11.8617 15.8157 11.7145 15.4843C11.5674 15.1528 11.3268 14.8714 11.0224 14.6744C10.7179 14.4774 10.3626 14.3734 10 14.375C9.87639 14.375 9.75555 14.3383 9.65277 14.2697C9.54999 14.201 9.46988 14.1034 9.42258 13.9892C9.37527 13.875 9.36289 13.7493 9.38701 13.6281C9.41112 13.5068 9.47065 13.3955 9.55806 13.3081C9.64547 13.2206 9.75683 13.1611 9.87807 13.137C9.99931 13.1129 10.125 13.1253 10.2392 13.1726C10.3534 13.2199 10.451 13.3 10.5197 13.4028C10.5883 13.5055 10.625 13.6264 10.625 13.75H11.875C11.8734 13.3636 11.7524 12.9871 11.5287 12.6721C11.3049 12.357 10.9893 12.1188 10.625 11.99V11.25H9.375V11.99C8.95832 12.1368 8.60703 12.4263 8.38335 12.8072C8.15967 13.1882 8.07802 13.636 8.15288 14.0714C8.22774 14.5067 8.45427 14.9016 8.79235 15.1859C9.13043 15.4703 9.55823 15.6258 10 15.625C10.1236 15.625 10.2445 15.6617 10.3472 15.7303C10.45 15.799 10.5301 15.8966 10.5774 16.0108C10.6247 16.125 10.6371 16.2507 10.613 16.3719C10.5889 16.4932 10.5294 16.6045 10.4419 16.6919C10.3545 16.7794 10.2432 16.8389 10.1219 16.863C10.0007 16.8871 9.87503 16.8747 9.76082 16.8274C9.64662 16.7801 9.54901 16.7 9.48033 16.5972C9.41166 16.4945 9.375 16.3736 9.375 16.25H8.125C8.12639 16.7128 8.3002 17.1585 8.6125 17.5H5.68438C5.23908 16.7419 5.00292 15.8792 5 15Z" fill="#808080"/>
</svg>
