<svg width="32" height="32" viewBox="0 0 32 32" fill="none" xmlns="http://www.w3.org/2000/svg">
<rect x="0.5" y="0.5" width="31" height="31" rx="7.5" fill="white"/>
<rect x="0.5" y="0.5" width="31" height="31" rx="7.5" stroke="#E4E4E4"/>
<path d="M22.875 9.125H9.125C8.79348 9.125 8.47554 9.2567 8.24112 9.49112C8.0067 9.72554 7.875 10.0435 7.875 10.375V21.625C7.875 21.9565 8.0067 22.2745 8.24112 22.5089C8.47554 22.7433 8.79348 22.875 9.125 22.875H22.875C23.2065 22.875 23.5245 22.7433 23.7589 22.5089C23.9933 22.2745 24.125 21.9565 24.125 21.625V10.375C24.125 10.0435 23.9933 9.72554 23.7589 9.49112C23.5245 9.2567 23.2065 9.125 22.875 9.125ZM22.875 10.375V18.4023L20.8383 16.3664C20.7222 16.2503 20.5844 16.1582 20.4327 16.0954C20.281 16.0325 20.1185 16.0002 19.9543 16.0002C19.7901 16.0002 19.6276 16.0325 19.4759 16.0954C19.3242 16.1582 19.1864 16.2503 19.0703 16.3664L17.5078 17.9289L14.0703 14.4914C13.8359 14.2572 13.5181 14.1256 13.1867 14.1256C12.8553 14.1256 12.5375 14.2572 12.3031 14.4914L9.125 17.6695V10.375H22.875ZM9.125 19.4375L13.1875 15.375L19.4375 21.625H9.125V19.4375ZM22.875 21.625H21.2055L18.393 18.8125L19.9555 17.25L22.875 20.1703V21.625ZM17.25 13.8125C17.25 13.6271 17.305 13.4458 17.408 13.2917C17.511 13.1375 17.6574 13.0173 17.8287 12.9464C18 12.8754 18.1885 12.8568 18.3704 12.893C18.5523 12.9292 18.7193 13.0185 18.8504 13.1496C18.9815 13.2807 19.0708 13.4477 19.107 13.6296C19.1432 13.8115 19.1246 14 19.0536 14.1713C18.9827 14.3426 18.8625 14.489 18.7083 14.592C18.5542 14.695 18.3729 14.75 18.1875 14.75C17.9389 14.75 17.7004 14.6512 17.5246 14.4754C17.3488 14.2996 17.25 14.0611 17.25 13.8125Z" fill="#5B5B5B"/>
</svg>
