<svg width="40" height="40" viewBox="0 0 40 40" fill="none" xmlns="http://www.w3.org/2000/svg">
<path d="M27.4953 13.9667V34.062C27.4953 35.7439 26.1318 37.1073 24.45 37.1073H3.51356C1.83172 37.1073 0.468262 35.7439 0.468262 34.062V6.0453C0.468262 4.36346 1.83172 3 3.51356 3H16.5472C16.8934 3 17.2314 3.07857 17.5375 3.22581C17.7678 3.33658 27.1774 12.7735 27.2893 13.0187C27.4238 13.3135 27.4953 13.6364 27.4953 13.9667Z" fill="#F1F1F1"/>
<path d="M27.4953 13.9669V15.3061H19.5532C17.1588 15.3061 15.2106 13.3555 15.2106 10.9589V3H16.5475C16.8782 3 17.2017 3.07187 17.497 3.207C17.7427 3.31945 27.1827 12.781 27.2949 13.0309C27.4258 13.3224 27.4953 13.641 27.4953 13.9669Z" fill="#E3E0E4"/>
<path d="M27.4953 13.9669V15.3061H19.5532C17.1588 15.3061 15.2106 13.3555 15.2106 10.9589V3H16.5475C17.1535 3 17.7351 3.24134 18.1637 3.67073L26.8284 12.3536C27.2555 12.7815 27.4953 13.3616 27.4953 13.9669Z" fill="#E3E0E4"/>
<path d="M27.4953 13.9669V15.3061H19.5532C17.1588 15.3061 15.2106 13.3555 15.2106 10.9589V3H16.5475C16.8782 3 17.2017 3.07187 17.497 3.207C17.7427 3.31945 27.1827 12.781 27.2949 13.0309C27.4258 13.3224 27.4953 13.641 27.4953 13.9669Z" fill="#E3E0E4"/>
<path d="M5.79753 37.1073H3.51356C1.83179 37.1073 0.468262 35.7438 0.468262 34.062V6.0453C0.468262 4.36353 1.83179 3 3.51356 3H5.79753C4.11577 3 2.75224 4.36353 2.75224 6.0453V34.062C2.75224 35.7438 4.11577 37.1073 5.79753 37.1073Z" fill="#E3E0E4"/>
<path d="M27.2905 13.0221H19.5531C18.4165 13.0221 17.4945 12.0978 17.4945 10.9589V3.20709C17.7412 3.31825 17.9688 3.47508 18.1637 3.67074L26.8283 12.3536C27.0225 12.5485 27.1793 12.7754 27.2905 13.0221Z" fill="#A4A4A4"/>
<path d="M27.5 17.0833C21.747 17.0833 17.0834 21.747 17.0834 27.5C17.0834 33.253 21.747 37.9166 27.5 37.9166C33.253 37.9166 37.9167 33.253 37.9167 27.5C37.9167 21.747 33.253 17.0833 27.5 17.0833Z" fill="#111810"/>
<path fill-rule="evenodd" clip-rule="evenodd" d="M27.5 20.4167C28.1903 20.4167 28.75 20.9764 28.75 21.6667V33.3334C28.75 34.0237 28.1903 34.5834 27.5 34.5834C26.8097 34.5834 26.25 34.0237 26.25 33.3334V21.6667C26.25 20.9764 26.8097 20.4167 27.5 20.4167Z" fill="#ECEFF1"/>
<path fill-rule="evenodd" clip-rule="evenodd" d="M26.6161 20.7828C27.1043 20.2946 27.8956 20.2946 28.3838 20.7828L33.3838 25.7828C33.872 26.271 33.872 27.0623 33.3838 27.5505C32.8956 28.0386 32.1043 28.0386 31.6161 27.5505L27.5 23.4345L23.3838 27.5505C22.8956 28.0386 22.1043 28.0386 21.6161 27.5505C21.128 27.0623 21.128 26.271 21.6161 25.7828L26.6161 20.7828Z" fill="#ECEFF1"/>
</svg>
