<svg width="24" height="24" viewBox="0 0 24 24" fill="none" xmlns="http://www.w3.org/2000/svg">
<rect x="0.5" y="0.5" width="23" height="23" rx="11.5" stroke="#E4E4E4"/>
<path d="M14.5 18C14.5 18.1326 14.4473 18.2598 14.3535 18.3536C14.2598 18.4473 14.1326 18.5 14 18.5H9.99999C9.86739 18.5 9.74021 18.4473 9.64644 18.3536C9.55267 18.2598 9.49999 18.1326 9.49999 18C9.49999 17.8674 9.55267 17.7402 9.64644 17.6464C9.74021 17.5527 9.86739 17.5 9.99999 17.5H14C14.1326 17.5 14.2598 17.5527 14.3535 17.6464C14.4473 17.7402 14.5 17.8674 14.5 18ZM17.8656 16C17.7789 16.1528 17.6529 16.2797 17.5008 16.3676C17.3486 16.4555 17.1757 16.5012 17 16.5H6.99999C6.8242 16.4998 6.65158 16.4532 6.49953 16.365C6.34747 16.2768 6.22136 16.15 6.1339 15.9975C6.04644 15.845 6.00072 15.6722 6.00135 15.4964C6.00198 15.3206 6.04894 15.1481 6.13749 14.9963C6.48437 14.3988 6.99999 12.7088 6.99999 10.5C6.99999 9.17392 7.52678 7.90215 8.46446 6.96447C9.40214 6.02678 10.6739 5.5 12 5.5C13.3261 5.5 14.5978 6.02678 15.5355 6.96447C16.4732 7.90215 17 9.17392 17 10.5C17 12.7081 17.5162 14.3988 17.8631 14.9963C17.9526 15.1483 17.9999 15.3215 18.0002 15.4979C18.0005 15.6743 17.9539 15.8476 17.865 16H17.8656ZM17 15.5C16.5169 14.6706 16 12.7531 16 10.5C16 9.43913 15.5786 8.42172 14.8284 7.67157C14.0783 6.92143 13.0609 6.5 12 6.5C10.9391 6.5 9.92171 6.92143 9.17157 7.67157C8.42142 8.42172 7.99999 9.43913 7.99999 10.5C7.99999 12.7538 7.48249 14.6712 6.99999 15.5H17Z" fill="#5B5B5B"/>
</svg>
